{
	"asset":{
		"generator":"Khronos glTF Blender I/O v5.0.21",
		"version":"2.0"
	},
	"scene":0,
	"scenes":[
		{
			"name":"Scene",
			"nodes":[
				9
			]
		}
	],
	"nodes":[
		{
			"mesh":0,
			"name":"eyeLeft_ORIGINAL",
			"rotation":[
				-0.70710688829422,
				0,
				0,
				0.7071066498756409
			]
		},
		{
			"children":[
				0
			],
			"name":"grp_eye_l"
		},
		{
			"mesh":1,
			"name":"eyeRight_ORIGINAL"
		},
		{
			"children":[
				2
			],
			"name":"grp_eye_r",
			"rotation":[
				-0.70710688829422,
				0,
				0,
				0.7071066498756409
			]
		},
		{
			"children":[
				1,
				3
			],
			"name":"grp_eyes",
			"rotation":[
				0.70710688829422,
				0,
				0,
				0.7071066498756409
			]
		},
		{
			"mesh":2,
			"name":"head_lod0_ORIGINAL",
			"rotation":[
				-0.70710688829422,
				0,
				0,
				0.7071066498756409
			]
		},
		{
			"children":[
				5
			],
			"name":"grp_head",
			"rotation":[
				0.70710688829422,
				0,
				0,
				0.7071066498756409
			]
		},
		{
			"mesh":3,
			"name":"teeth_ORIGINAL",
			"rotation":[
				-0.70710688829422,
				0,
				0,
				0.7071066498756409
			]
		},
		{
			"children":[
				7
			],
			"name":"grp_mouth",
			"rotation":[
				0.70710688829422,
				0,
				0,
				0.7071066498756409
			]
		},
		{
			"children":[
				4,
				6,
				8
			],
			"name":"grp_blendShapes_01",
			"scale":[
				0.009999999776482582,
				0.009999999776482582,
				0.009999999776482582
			]
		}
	],
	"animations":[
		{
			"channels":[
				{
					"sampler":0,
					"target":{
						"node":0,
						"path":"weights"
					}
				},
				{
					"sampler":1,
					"target":{
						"node":2,
						"path":"weights"
					}
				},
				{
					"sampler":2,
					"target":{
						"node":5,
						"path":"weights"
					}
				},
				{
					"sampler":3,
					"target":{
						"node":7,
						"path":"weights"
					}
				}
			],
			"name":"Scene",
			"samplers":[
				{
					"input":216,
					"interpolation":"LINEAR",
					"output":217
				},
				{
					"input":216,
					"interpolation":"LINEAR",
					"output":218
				},
				{
					"input":216,
					"interpolation":"LINEAR",
					"output":219
				},
				{
					"input":216,
					"interpolation":"LINEAR",
					"output":220
				}
			]
		}
	],
	"materials":[
		{
			"doubleSided":true,
			"name":"white.001",
			"pbrMetallicRoughness":{
				"baseColorFactor":[
					0.800000011920929,
					0.800000011920929,
					0.800000011920929,
					1
				],
				"metallicFactor":0,
				"roughnessFactor":0.5
			}
		},
		{
			"doubleSided":true,
			"name":"pupil.001",
			"pbrMetallicRoughness":{
				"baseColorFactor":[
					0.34191447496414185,
					0.14702732861042023,
					0.06847819685935974,
					1
				],
				"metallicFactor":0,
				"roughnessFactor":0.5
			}
		},
		{
			"doubleSided":true,
			"name":"black",
			"pbrMetallicRoughness":{
				"baseColorFactor":[
					0,
					0,
					0,
					1
				],
				"metallicFactor":0,
				"roughnessFactor":0.5
			}
		},
		{
			"doubleSided":true,
			"name":"pupil",
			"pbrMetallicRoughness":{
				"baseColorFactor":[
					0.34191447496414185,
					0.14702732861042023,
					0.06847819685935974,
					1
				],
				"metallicFactor":0,
				"roughnessFactor":0.5
			}
		},
		{
			"doubleSided":true,
			"name":"white",
			"pbrMetallicRoughness":{
				"baseColorFactor":[
					0.800000011920929,
					0.800000011920929,
					0.800000011920929,
					1
				],
				"metallicFactor":0,
				"roughnessFactor":0.5
			}
		},
		{
			"doubleSided":true,
			"name":"center",
			"pbrMetallicRoughness":{
				"baseColorFactor":[
					0,
					0,
					0,
					1
				],
				"metallicFactor":0,
				"roughnessFactor":0.5
			}
		},
		{
			"doubleSided":true,
			"name":"Skin",
			"normalTexture":{
				"index":0,
				"scale":2,
				"texCoord":1
			},
			"pbrMetallicRoughness":{
				"baseColorTexture":{
					"index":1,
					"texCoord":1
				},
				"metallicFactor":0,
				"metallicRoughnessTexture":{
					"index":2,
					"texCoord":1
				}
			}
		},
		{
			"doubleSided":true,
			"name":"Gums",
			"pbrMetallicRoughness":{
				"baseColorFactor":[
					0.5840786695480347,
					0.19806936383247375,
					0.23074014484882355,
					1
				],
				"metallicFactor":0,
				"roughnessFactor":0.8115577697753906
			}
		},
		{
			"doubleSided":true,
			"name":"Teeth",
			"pbrMetallicRoughness":{
				"baseColorFactor":[
					0.800000011920929,
					0.800000011920929,
					0.800000011920929,
					1
				],
				"metallicFactor":0,
				"roughnessFactor":0.4045225977897644
			}
		}
	],
	"meshes":[
		{
			"extras":{
				"targetNames":[
					"eyeLookDownLeft",
					"eyeLookInLeft",
					"eyeLookOutLeft",
					"eyeLookUpLeft"
				]
			},
			"name":"Mesh.001",
			"primitives":[
				{
					"attributes":{
						"POSITION":0,
						"NORMAL":1,
						"TEXCOORD_0":2,
						"TEXCOORD_1":3
					},
					"indices":4,
					"material":0,
					"targets":[
						{
							"POSITION":5,
							"NORMAL":6
						},
						{
							"POSITION":7,
							"NORMAL":8
						},
						{
							"POSITION":9,
							"NORMAL":10
						},
						{
							"POSITION":11,
							"NORMAL":12
						}
					]
				},
				{
					"attributes":{
						"POSITION":13,
						"NORMAL":14,
						"TEXCOORD_0":15,
						"TEXCOORD_1":16
					},
					"indices":17,
					"material":1,
					"targets":[
						{
							"POSITION":18,
							"NORMAL":19
						},
						{
							"POSITION":20,
							"NORMAL":21
						},
						{
							"POSITION":22,
							"NORMAL":23
						},
						{
							"POSITION":24,
							"NORMAL":25
						}
					]
				},
				{
					"attributes":{
						"POSITION":26,
						"NORMAL":27,
						"TEXCOORD_0":28,
						"TEXCOORD_1":29
					},
					"indices":30,
					"material":2,
					"targets":[
						{
							"POSITION":31,
							"NORMAL":32
						},
						{
							"POSITION":33,
							"NORMAL":34
						},
						{
							"POSITION":35,
							"NORMAL":36
						},
						{
							"POSITION":37,
							"NORMAL":38
						}
					]
				}
			],
			"weights":[
				0,
				0,
				0,
				0
			]
		},
		{
			"extras":{
				"targetNames":[
					"eyeLookDownRight",
					"eyeLookInRight",
					"eyeLookOutRight",
					"eyeLookUpRight"
				]
			},
			"name":"Mesh.002",
			"primitives":[
				{
					"attributes":{
						"POSITION":39,
						"NORMAL":40,
						"TEXCOORD_0":41,
						"TEXCOORD_1":42,
						"TEXCOORD_2":43
					},
					"indices":17,
					"material":3,
					"targets":[
						{
							"POSITION":44,
							"NORMAL":45
						},
						{
							"POSITION":46,
							"NORMAL":47
						},
						{
							"POSITION":48,
							"NORMAL":49
						},
						{
							"POSITION":50,
							"NORMAL":51
						}
					]
				},
				{
					"attributes":{
						"POSITION":52,
						"NORMAL":53,
						"TEXCOORD_0":54,
						"TEXCOORD_1":55,
						"TEXCOORD_2":56
					},
					"indices":57,
					"material":4,
					"targets":[
						{
							"POSITION":58,
							"NORMAL":59
						},
						{
							"POSITION":60,
							"NORMAL":61
						},
						{
							"POSITION":62,
							"NORMAL":63
						},
						{
							"POSITION":64,
							"NORMAL":65
						}
					]
				},
				{
					"attributes":{
						"POSITION":66,
						"NORMAL":67,
						"TEXCOORD_0":68,
						"TEXCOORD_1":69,
						"TEXCOORD_2":70
					},
					"indices":30,
					"material":5,
					"targets":[
						{
							"POSITION":71,
							"NORMAL":72
						},
						{
							"POSITION":73,
							"NORMAL":74
						},
						{
							"POSITION":75,
							"NORMAL":76
						},
						{
							"POSITION":77,
							"NORMAL":78
						}
					]
				}
			],
			"weights":[
				0,
				0,
				0,
				0
			]
		},
		{
			"extras":{
				"targetNames":[
					"eyeBlinkLeft",
					"eyeLookDownLeft",
					"eyeLookInLeft",
					"eyeLookOutLeft",
					"eyeLookUpLeft",
					"eyeSquintLeft",
					"eyeWideLeft",
					"eyeBlinkRight",
					"eyeLookDownRight",
					"eyeLookInRight",
					"eyeLookOutRight",
					"eyeLookUpRight",
					"eyeSquintRight",
					"eyeWideRight",
					"jawForward",
					"jawLeft",
					"jawRight",
					"jawOpen",
					"mouthClose",
					"mouthFunnel",
					"mouthPucker",
					"mouthRight",
					"mouthLeft",
					"mouthSmileLeft",
					"mouthSmileRight",
					"mouthFrownLeft",
					"mouthFrownRight",
					"mouthDimpleLeft",
					"mouthDimpleRight",
					"mouthStretchLeft",
					"mouthStretchRight",
					"mouthRollLower",
					"mouthRollUpper",
					"mouthShrugLower",
					"mouthShrugUpper",
					"mouthPressLeft",
					"mouthPressRight",
					"mouthLowerDownLeft",
					"mouthLowerDownRight",
					"mouthUpperUpLeft",
					"mouthUpperUpRight",
					"browDownLeft",
					"browDownRight",
					"browInnerUp",
					"browOuterUpLeft",
					"browOuterUpRight",
					"cheekPuff",
					"cheekSquintLeft",
					"cheekSquintRight",
					"noseSneerLeft",
					"noseSneerRight"
				]
			},
			"name":"Mesh",
			"primitives":[
				{
					"attributes":{
						"POSITION":79,
						"NORMAL":80,
						"TEXCOORD_0":81,
						"TEXCOORD_1":82
					},
					"indices":83,
					"material":6,
					"targets":[
						{
							"POSITION":84,
							"NORMAL":85
						},
						{
							"POSITION":86,
							"NORMAL":87
						},
						{
							"POSITION":88,
							"NORMAL":89
						},
						{
							"POSITION":90,
							"NORMAL":91
						},
						{
							"POSITION":92,
							"NORMAL":93
						},
						{
							"POSITION":94,
							"NORMAL":95
						},
						{
							"POSITION":96,
							"NORMAL":97
						},
						{
							"POSITION":98,
							"NORMAL":99
						},
						{
							"POSITION":100,
							"NORMAL":101
						},
						{
							"POSITION":102,
							"NORMAL":103
						},
						{
							"POSITION":104,
							"NORMAL":105
						},
						{
							"POSITION":106,
							"NORMAL":107
						},
						{
							"POSITION":108,
							"NORMAL":109
						},
						{
							"POSITION":110,
							"NORMAL":111
						},
						{
							"POSITION":112,
							"NORMAL":113
						},
						{
							"POSITION":114,
							"NORMAL":115
						},
						{
							"POSITION":116,
							"NORMAL":117
						},
						{
							"POSITION":118,
							"NORMAL":119
						},
						{
							"POSITION":120,
							"NORMAL":121
						},
						{
							"POSITION":122,
							"NORMAL":123
						},
						{
							"POSITION":124,
							"NORMAL":125
						},
						{
							"POSITION":126,
							"NORMAL":127
						},
						{
							"POSITION":128,
							"NORMAL":129
						},
						{
							"POSITION":130,
							"NORMAL":131
						},
						{
							"POSITION":132,
							"NORMAL":133
						},
						{
							"POSITION":134,
							"NORMAL":135
						},
						{
							"POSITION":136,
							"NORMAL":137
						},
						{
							"POSITION":138,
							"NORMAL":139
						},
						{
							"POSITION":140,
							"NORMAL":141
						},
						{
							"POSITION":142,
							"NORMAL":143
						},
						{
							"POSITION":144,
							"NORMAL":145
						},
						{
							"POSITION":146,
							"NORMAL":147
						},
						{
							"POSITION":148,
							"NORMAL":149
						},
						{
							"POSITION":150,
							"NORMAL":151
						},
						{
							"POSITION":152,
							"NORMAL":153
						},
						{
							"POSITION":154,
							"NORMAL":155
						},
						{
							"POSITION":156,
							"NORMAL":157
						},
						{
							"POSITION":158,
							"NORMAL":159
						},
						{
							"POSITION":160,
							"NORMAL":161
						},
						{
							"POSITION":162,
							"NORMAL":163
						},
						{
							"POSITION":164,
							"NORMAL":165
						},
						{
							"POSITION":166,
							"NORMAL":167
						},
						{
							"POSITION":168,
							"NORMAL":169
						},
						{
							"POSITION":170,
							"NORMAL":171
						},
						{
							"POSITION":172,
							"NORMAL":173
						},
						{
							"POSITION":174,
							"NORMAL":175
						},
						{
							"POSITION":176,
							"NORMAL":177
						},
						{
							"POSITION":178,
							"NORMAL":179
						},
						{
							"POSITION":180,
							"NORMAL":181
						},
						{
							"POSITION":182,
							"NORMAL":183
						},
						{
							"POSITION":184,
							"NORMAL":185
						}
					]
				}
			],
			"weights":[
				0,
				0,
				0,
				0,
				0,
				0,
				0,
				0,
				0,
				0,
				0,
				0,
				0,
				0,
				0,
				0,
				0,
				0,
				0,
				0,
				0,
				0,
				0,
				0,
				0,
				0,
				0,
				0,
				0,
				0,
				0,
				0,
				0,
				0,
				0,
				0,
				0,
				0,
				0,
				0,
				0,
				0,
				0,
				0,
				0,
				0,
				0,
				0,
				0,
				0,
				0
			]
		},
		{
			"extras":{
				"targetNames":[
					"jawForward",
					"jawLeft",
					"jawRight",
					"jawOpen",
					"mouthClose"
				]
			},
			"name":"Mesh.003",
			"primitives":[
				{
					"attributes":{
						"POSITION":186,
						"NORMAL":187,
						"TEXCOORD_0":188,
						"TEXCOORD_1":189
					},
					"indices":190,
					"material":7,
					"targets":[
						{
							"POSITION":191,
							"NORMAL":192
						},
						{
							"POSITION":193,
							"NORMAL":194
						},
						{
							"POSITION":195,
							"NORMAL":196
						},
						{
							"POSITION":197,
							"NORMAL":198
						},
						{
							"POSITION":199,
							"NORMAL":200
						}
					]
				},
				{
					"attributes":{
						"POSITION":201,
						"NORMAL":202,
						"TEXCOORD_0":203,
						"TEXCOORD_1":204
					},
					"indices":205,
					"material":8,
					"targets":[
						{
							"POSITION":206,
							"NORMAL":207
						},
						{
							"POSITION":208,
							"NORMAL":209
						},
						{
							"POSITION":210,
							"NORMAL":211
						},
						{
							"POSITION":212,
							"NORMAL":213
						},
						{
							"POSITION":214,
							"NORMAL":215
						}
					]
				}
			],
			"weights":[
				0,
				0,
				0,
				0,
				0
			]
		}
	],
	"textures":[
		{
			"sampler":0,
			"source":0
		},
		{
			"sampler":0,
			"source":1
		},
		{
			"sampler":0,
			"source":2
		}
	],
	"images":[
		{
			"mimeType":"image/jpeg",
			"name":"skin-1_bump",
			"uri":"skin-1_bump.jpg"
		},
		{
			"mimeType":"image/jpeg",
			"name":"skin-1_diffuse",
			"uri":"skin-1_diffuse.jpg"
		},
		{
			"mimeType":"image/png",
			"name":"skin-1_smooth",
			"uri":"skin-1_smooth.png"
		}
	],
	"accessors":[
		{
			"bufferView":0,
			"componentType":5126,
			"count":800,
			"max":[
				4.737661838531494,
				165.7958526611328,
				10.581104278564453
			],
			"min":[
				1.868598222732544,
				162.93389892578125,
				7.824031352996826
			],
			"type":"VEC3"
		},
		{
			"bufferView":1,
			"componentType":5126,
			"count":800,
			"type":"VEC3"
		},
		{
			"bufferView":2,
			"componentType":5126,
			"count":800,
			"type":"VEC2"
		},
		{
			"bufferView":3,
			"componentType":5126,
			"count":800,
			"type":"VEC2"
		},
		{
			"bufferView":4,
			"componentType":5123,
			"count":3744,
			"type":"SCALAR"
		},
		{
			"bufferView":5,
			"componentType":5126,
			"count":800,
			"max":[
				-0.04720640182495117,
				1.0657501220703125,
				1.0059394836425781
			],
			"min":[
				-0.04725027084350586,
				-0.8746337890625,
				-0.9457902908325195
			],
			"type":"VEC3"
		},
		{
			"bufferView":6,
			"componentType":5126,
			"count":800,
			"type":"VEC3"
		},
		{
			"bufferView":7,
			"componentType":5126,
			"count":800,
			"max":[
				0.8395183086395264,
				0.001220703125,
				0.9053659439086914
			],
			"min":[
				-0.971076250076294,
				-0.001190185546875,
				-0.9409885406494141
			],
			"type":"VEC3"
		},
		{
			"bufferView":8,
			"componentType":5126,
			"count":800,
			"type":"VEC3"
		},
		{
			"bufferView":9,
			"componentType":5126,
			"count":800,
			"max":[
				1.011359453201294,
				0.054595947265625,
				0.9877786636352539
			],
			"min":[
				-1.0414700508117676,
				0.0453948974609375,
				-1.0758094787597656
			],
			"type":"VEC3"
		},
		{
			"bufferView":10,
			"componentType":5126,
			"count":800,
			"type":"VEC3"
		},
		{
			"bufferView":11,
			"componentType":5126,
			"count":800,
			"max":[
				0.0042552947998046875,
				0.647552490234375,
				0.7308721542358398
			],
			"min":[
				0.0008752346038818359,
				-0.7955169677734375,
				-0.7374391555786133
			],
			"type":"VEC3"
		},
		{
			"bufferView":12,
			"componentType":5126,
			"count":800,
			"type":"VEC3"
		},
		{
			"bufferView":13,
			"componentType":5126,
			"count":128,
			"max":[
				3.9387047290802,
				164.87106323242188,
				10.702978134155273
			],
			"min":[
				2.8460404872894287,
				163.8130340576172,
				10.500694274902344
			],
			"type":"VEC3"
		},
		{
			"bufferView":14,
			"componentType":5126,
			"count":128,
			"type":"VEC3"
		},
		{
			"bufferView":15,
			"componentType":5126,
			"count":128,
			"type":"VEC2"
		},
		{
			"bufferView":16,
			"componentType":5126,
			"count":128,
			"type":"VEC2"
		},
		{
			"bufferView":17,
			"componentType":5123,
			"count":576,
			"type":"SCALAR"
		},
		{
			"bufferView":18,
			"componentType":5126,
			"count":128,
			"max":[
				-0.04720711708068848,
				-0.6085968017578125,
				0.03746223449707031
			],
			"min":[
				-0.04721784591674805,
				-0.8923797607421875,
				-0.6374683380126953
			],
			"type":"VEC3"
		},
		{
			"bufferView":19,
			"componentType":5126,
			"count":128,
			"type":"VEC3"
		},
		{
			"bufferView":20,
			"componentType":5126,
			"count":128,
			"max":[
				-0.7915208339691162,
				-0.00048828125,
				0.09841251373291016
			],
			"min":[
				-1.0118029117584229,
				-0.0011444091796875,
				-0.5839099884033203
			],
			"type":"VEC3"
		},
		{
			"bufferView":21,
			"componentType":5126,
			"count":128,
			"type":"VEC3"
		},
		{
			"bufferView":22,
			"componentType":5126,
			"count":128,
			"max":[
				1.0206184387207031,
				0.0486907958984375,
				-0.098419189453125
			],
			"min":[
				0.6735045909881592,
				0.0458984375,
				-0.8149890899658203
			],
			"type":"VEC3"
		},
		{
			"bufferView":23,
			"componentType":5126,
			"count":128,
			"type":"VEC3"
		},
		{
			"bufferView":24,
			"componentType":5126,
			"count":128,
			"max":[
				0.004378795623779297,
				0.68084716796875,
				0.0935983657836914
			],
			"min":[
				0.004084110260009766,
				0.5131683349609375,
				-0.4350099563598633
			],
			"type":"VEC3"
		},
		{
			"bufferView":25,
			"componentType":5126,
			"count":128,
			"type":"VEC3"
		},
		{
			"bufferView":26,
			"componentType":5126,
			"count":65,
			"max":[
				3.6518125534057617,
				164.57611083984375,
				10.719721794128418
			],
			"min":[
				3.1543474197387695,
				164.10232543945312,
				10.666047096252441
			],
			"type":"VEC3"
		},
		{
			"bufferView":27,
			"componentType":5126,
			"count":65,
			"type":"VEC3"
		},
		{
			"bufferView":28,
			"componentType":5126,
			"count":65,
			"type":"VEC2"
		},
		{
			"bufferView":29,
			"componentType":5126,
			"count":65,
			"type":"VEC2"
		},
		{
			"bufferView":30,
			"componentType":5123,
			"count":288,
			"type":"SCALAR"
		},
		{
			"bufferView":31,
			"componentType":5126,
			"count":65,
			"max":[
				-0.047208309173583984,
				-0.771820068359375,
				-0.1835498809814453
			],
			"min":[
				-0.04721331596374512,
				-0.89093017578125,
				-0.4858360290527344
			],
			"type":"VEC3"
		},
		{
			"bufferView":32,
			"componentType":5126,
			"count":65,
			"type":"VEC3"
		},
		{
			"bufferView":33,
			"componentType":5126,
			"count":65,
			"max":[
				-0.930408239364624,
				-0.000762939453125,
				-0.11063385009765625
			],
			"min":[
				-1.0118029117584229,
				-0.0010528564453125,
				-0.4214000701904297
			],
			"type":"VEC3"
		},
		{
			"bufferView":34,
			"componentType":5126,
			"count":65,
			"type":"VEC3"
		},
		{
			"bufferView":35,
			"componentType":5126,
			"count":65,
			"max":[
				1.0135765075683594,
				0.047637939453125,
				-0.3384437561035156
			],
			"min":[
				0.8593683242797852,
				0.046356201171875,
				-0.6645307540893555
			],
			"type":"VEC3"
		},
		{
			"bufferView":36,
			"componentType":5126,
			"count":65,
			"type":"VEC3"
		},
		{
			"bufferView":37,
			"componentType":5126,
			"count":65,
			"max":[
				0.004389524459838867,
				0.68084716796875,
				-0.06953620910644531
			],
			"min":[
				0.004301309585571289,
				0.62042236328125,
				-0.3062171936035156
			],
			"type":"VEC3"
		},
		{
			"bufferView":38,
			"componentType":5126,
			"count":65,
			"type":"VEC3"
		},
		{
			"bufferView":39,
			"componentType":5126,
			"count":128,
			"max":[
				-2.837959051132202,
				164.87632751464844,
				10.68907356262207
			],
			"min":[
				-3.9321587085723877,
				163.8206329345703,
				10.501067161560059
			],
			"type":"VEC3"
		},
		{
			"bufferView":40,
			"componentType":5126,
			"count":128,
			"type":"VEC3"
		},
		{
			"bufferView":41,
			"componentType":5126,
			"count":128,
			"type":"VEC2"
		},
		{
			"bufferView":42,
			"componentType":5126,
			"count":128,
			"type":"VEC2"
		},
		{
			"bufferView":43,
			"componentType":5126,
			"count":128,
			"type":"VEC2"
		},
		{
			"bufferView":44,
			"componentType":5126,
			"count":128,
			"max":[
				0.03761553764343262,
				-0.6203765869140625,
				0.042064666748046875
			],
			"min":[
				0.03760647773742676,
				-0.9034271240234375,
				-0.6307811737060547
			],
			"type":"VEC3"
		},
		{
			"bufferView":45,
			"componentType":5126,
			"count":128,
			"type":"VEC3"
		},
		{
			"bufferView":46,
			"componentType":5126,
			"count":128,
			"max":[
				1.0219025611877441,
				-0.00030517578125,
				0.08136653900146484
			],
			"min":[
				0.7914168834686279,
				-0.0003662109375,
				-0.5977678298950195
			],
			"type":"VEC3"
		},
		{
			"bufferView":47,
			"componentType":5126,
			"count":128,
			"type":"VEC3"
		},
		{
			"bufferView":48,
			"componentType":5126,
			"count":128,
			"max":[
				-0.7058393955230713,
				0.0452728271484375,
				-0.08621883392333984
			],
			"min":[
				-1.0417850017547607,
				0.045196533203125,
				-0.8096561431884766
			],
			"type":"VEC3"
		},
		{
			"bufferView":49,
			"componentType":5126,
			"count":128,
			"type":"VEC3"
		},
		{
			"bufferView":50,
			"componentType":5126,
			"count":128,
			"max":[
				0.008099079132080078,
				0.667266845703125,
				0.09353065490722656
			],
			"min":[
				0.007686614990234375,
				0.5003509521484375,
				-0.43657875061035156
			],
			"type":"VEC3"
		},
		{
			"bufferView":51,
			"componentType":5126,
			"count":128,
			"type":"VEC3"
		},
		{
			"bufferView":52,
			"componentType":5126,
			"count":800,
			"max":[
				-1.8672715425491333,
				165.8054656982422,
				10.561663627624512
			],
			"min":[
				-4.741891384124756,
				162.94418334960938,
				7.815987586975098
			],
			"type":"VEC3"
		},
		{
			"bufferView":53,
			"componentType":5126,
			"count":800,
			"type":"VEC3"
		},
		{
			"bufferView":54,
			"componentType":5126,
			"count":800,
			"type":"VEC2"
		},
		{
			"bufferView":55,
			"componentType":5126,
			"count":800,
			"type":"VEC2"
		},
		{
			"bufferView":56,
			"componentType":5126,
			"count":800,
			"type":"VEC2"
		},
		{
			"bufferView":57,
			"componentType":5123,
			"count":3744,
			"type":"SCALAR"
		},
		{
			"bufferView":58,
			"componentType":5126,
			"count":800,
			"max":[
				0.037744760513305664,
				1.0518035888671875,
				1.0130548477172852
			],
			"min":[
				0.0376126766204834,
				-0.8842926025390625,
				-0.9361076354980469
			],
			"type":"VEC3"
		},
		{
			"bufferView":59,
			"componentType":5126,
			"count":800,
			"type":"VEC3"
		},
		{
			"bufferView":60,
			"componentType":5126,
			"count":800,
			"max":[
				0.98486328125,
				-0.0003509521484375,
				0.8959999084472656
			],
			"min":[
				-0.8309471607208252,
				-0.00140380859375,
				-0.9504051208496094
			],
			"type":"VEC3"
		},
		{
			"bufferView":61,
			"componentType":5126,
			"count":800,
			"type":"VEC3"
		},
		{
			"bufferView":62,
			"componentType":5126,
			"count":800,
			"max":[
				1.0190107822418213,
				0.04522705078125,
				0.9924516677856445
			],
			"min":[
				-1.0295255184173584,
				0.0441741943359375,
				-1.0762443542480469
			],
			"type":"VEC3"
		},
		{
			"bufferView":63,
			"componentType":5126,
			"count":800,
			"type":"VEC3"
		},
		{
			"bufferView":64,
			"componentType":5126,
			"count":800,
			"max":[
				0.008092164993286133,
				0.63250732421875,
				0.732940673828125
			],
			"min":[
				0.005709171295166016,
				-0.81549072265625,
				-0.7410573959350586
			],
			"type":"VEC3"
		},
		{
			"bufferView":65,
			"componentType":5126,
			"count":800,
			"type":"VEC3"
		},
		{
			"bufferView":66,
			"componentType":5126,
			"count":65,
			"max":[
				-3.1427042484283447,
				164.58197021484375,
				10.709981918334961
			],
			"min":[
				-3.641082525253296,
				164.1090087890625,
				10.662492752075195
			],
			"type":"VEC3"
		},
		{
			"bufferView":67,
			"componentType":5126,
			"count":65,
			"type":"VEC3"
		},
		{
			"bufferView":68,
			"componentType":5126,
			"count":65,
			"type":"VEC2"
		},
		{
			"bufferView":69,
			"componentType":5126,
			"count":65,
			"type":"VEC2"
		},
		{
			"bufferView":70,
			"componentType":5126,
			"count":65,
			"type":"VEC2"
		},
		{
			"bufferView":71,
			"componentType":5126,
			"count":65,
			"max":[
				0.037607669830322266,
				-0.7841339111328125,
				-0.17885780334472656
			],
			"min":[
				0.03760552406311035,
				-0.9024200439453125,
				-0.480255126953125
			],
			"type":"VEC3"
		},
		{
			"bufferView":72,
			"componentType":5126,
			"count":65,
			"type":"VEC3"
		},
		{
			"bufferView":73,
			"componentType":5126,
			"count":65,
			"max":[
				1.0219025611877441,
				-0.0002899169921875,
				-0.12942218780517578
			],
			"min":[
				0.9331920146942139,
				-0.0003204345703125,
				-0.43854427337646484
			],
			"type":"VEC3"
		},
		{
			"bufferView":74,
			"componentType":5126,
			"count":65,
			"type":"VEC3"
		},
		{
			"bufferView":75,
			"componentType":5126,
			"count":65,
			"max":[
				-0.8897669315338135,
				0.0452880859375,
				-0.3253955841064453
			],
			"min":[
				-1.0365331172943115,
				0.045257568359375,
				-0.6551599502563477
			],
			"type":"VEC3"
		},
		{
			"bufferView":76,
			"componentType":5126,
			"count":65,
			"type":"VEC3"
		},
		{
			"bufferView":77,
			"componentType":5126,
			"count":65,
			"max":[
				0.008086919784545898,
				0.667266845703125,
				-0.07026481628417969
			],
			"min":[
				0.00790548324584961,
				0.608245849609375,
				-0.3077840805053711
			],
			"type":"VEC3"
		},
		{
			"bufferView":78,
			"componentType":5126,
			"count":65,
			"type":"VEC3"
		},
		{
			"bufferView":79,
			"componentType":5126,
			"count":28461,
			"max":[
				17.90898323059082,
				175.79220581054688,
				13.991806983947754
			],
			"min":[
				-17.9068546295166,
				136.71116638183594,
				-9.97262191772461
			],
			"type":"VEC3"
		},
		{
			"bufferView":80,
			"componentType":5126,
			"count":28461,
			"type":"VEC3"
		},
		{
			"bufferView":81,
			"componentType":5126,
			"count":28461,
			"type":"VEC2"
		},
		{
			"bufferView":82,
			"componentType":5126,
			"count":28461,
			"type":"VEC2"
		},
		{
			"bufferView":83,
			"componentType":5123,
			"count":144012,
			"type":"SCALAR"
		},
		{
			"componentType":5126,
			"count":28461,
			"max":[
				0.005094884429126978,
				0.114654541015625,
				0.3409423828125
			],
			"min":[
				-0.3474133014678955,
				-1.08770751953125,
				-0.2033863067626953
			],
			"sparse":{
				"count":5788,
				"indices":{
					"bufferView":84,
					"componentType":5123
				},
				"values":{
					"bufferView":85
				}
			},
			"type":"VEC3"
		},
		{
			"bufferView":86,
			"componentType":5126,
			"count":28461,
			"type":"VEC3"
		},
		{
			"componentType":5126,
			"count":28461,
			"max":[
				0.07508325576782227,
				0.011444091796875,
				0.33231258392333984
			],
			"min":[
				-0.17291641235351562,
				-1.126983642578125,
				-0.3813505172729492
			],
			"sparse":{
				"count":5050,
				"indices":{
					"bufferView":87,
					"componentType":5123
				},
				"values":{
					"bufferView":88
				}
			},
			"type":"VEC3"
		},
		{
			"bufferView":89,
			"componentType":5126,
			"count":28461,
			"type":"VEC3"
		},
		{
			"componentType":5126,
			"count":28461,
			"max":[
				0.052597999572753906,
				0.143341064453125,
				0.047987937927246094
			],
			"min":[
				-0.1983499526977539,
				-0.043701171875,
				-0.10398483276367188
			],
			"sparse":{
				"count":4955,
				"indices":{
					"bufferView":90,
					"componentType":5123
				},
				"values":{
					"bufferView":91
				}
			},
			"type":"VEC3"
		},
		{
			"bufferView":92,
			"componentType":5126,
			"count":28461,
			"type":"VEC3"
		},
		{
			"componentType":5126,
			"count":28461,
			"max":[
				0.18049240112304688,
				0.10211181640625,
				0.10809135437011719
			],
			"min":[
				-0.011164426803588867,
				-0.0550384521484375,
				-0.20003604888916016
			],
			"sparse":{
				"count":5010,
				"indices":{
					"bufferView":93,
					"componentType":5123
				},
				"values":{
					"bufferView":94
				}
			},
			"type":"VEC3"
		},
		{
			"bufferView":95,
			"componentType":5126,
			"count":28461,
			"type":"VEC3"
		},
		{
			"componentType":5126,
			"count":28461,
			"max":[
				0.05646705627441406,
				0.4470062255859375,
				0.1371936798095703
			],
			"min":[
				-0.03269052505493164,
				-0.030120849609375,
				-0.2542543411254883
			],
			"sparse":{
				"count":5106,
				"indices":{
					"bufferView":96,
					"componentType":5123
				},
				"values":{
					"bufferView":97
				}
			},
			"type":"VEC3"
		},
		{
			"bufferView":98,
			"componentType":5126,
			"count":28461,
			"type":"VEC3"
		},
		{
			"componentType":5126,
			"count":28461,
			"max":[
				0.0166776180267334,
				0.3935699462890625,
				0.28427696228027344
			],
			"min":[
				-0.36002159118652344,
				-0.0827178955078125,
				-0.016972064971923828
			],
			"sparse":{
				"count":7274,
				"indices":{
					"bufferView":99,
					"componentType":5123
				},
				"values":{
					"bufferView":100
				}
			},
			"type":"VEC3"
		},
		{
			"bufferView":101,
			"componentType":5126,
			"count":28461,
			"type":"VEC3"
		},
		{
			"componentType":5126,
			"count":28461,
			"max":[
				0.02212071418762207,
				0.3502349853515625,
				0.011956214904785156
			],
			"min":[
				-0.08641529083251953,
				-0.030120849609375,
				-0.21280860900878906
			],
			"sparse":{
				"count":4812,
				"indices":{
					"bufferView":102,
					"componentType":5123
				},
				"values":{
					"bufferView":103
				}
			},
			"type":"VEC3"
		},
		{
			"bufferView":104,
			"componentType":5126,
			"count":28461,
			"type":"VEC3"
		},
		{
			"componentType":5126,
			"count":28461,
			"max":[
				0.32141542434692383,
				0.1155853271484375,
				0.31575775146484375
			],
			"min":[
				-0.004342555999755859,
				-1.071502685546875,
				-0.20119285583496094
			],
			"sparse":{
				"count":5635,
				"indices":{
					"bufferView":105,
					"componentType":5123
				},
				"values":{
					"bufferView":106
				}
			},
			"type":"VEC3"
		},
		{
			"bufferView":107,
			"componentType":5126,
			"count":28461,
			"type":"VEC3"
		},
		{
			"componentType":5126,
			"count":28461,
			"max":[
				0.1423335075378418,
				0.0057525634765625,
				0.3233184814453125
			],
			"min":[
				-0.06912469863891602,
				-1.126220703125,
				-0.38337039947509766
			],
			"sparse":{
				"count":4937,
				"indices":{
					"bufferView":108,
					"componentType":5123
				},
				"values":{
					"bufferView":109
				}
			},
			"type":"VEC3"
		},
		{
			"bufferView":110,
			"componentType":5126,
			"count":28461,
			"type":"VEC3"
		},
		{
			"componentType":5126,
			"count":28461,
			"max":[
				0.21036791801452637,
				0.13421630859375,
				0.04583263397216797
			],
			"min":[
				-0.0586092472076416,
				-0.049835205078125,
				-0.09587764739990234
			],
			"sparse":{
				"count":4970,
				"indices":{
					"bufferView":111,
					"componentType":5123
				},
				"values":{
					"bufferView":112
				}
			},
			"type":"VEC3"
		},
		{
			"bufferView":113,
			"componentType":5126,
			"count":28461,
			"type":"VEC3"
		},
		{
			"componentType":5126,
			"count":28461,
			"max":[
				0.006110668182373047,
				0.105560302734375,
				0.11073875427246094
			],
			"min":[
				-0.18485736846923828,
				-0.0504150390625,
				-0.2160511016845703
			],
			"sparse":{
				"count":4982,
				"indices":{
					"bufferView":114,
					"componentType":5123
				},
				"values":{
					"bufferView":115
				}
			},
			"type":"VEC3"
		},
		{
			"bufferView":116,
			"componentType":5126,
			"count":28461,
			"type":"VEC3"
		},
		{
			"componentType":5126,
			"count":28461,
			"max":[
				0.019314289093017578,
				0.4471588134765625,
				0.14243602752685547
			],
			"min":[
				-0.05418109893798828,
				-0.020904541015625,
				-0.26520442962646484
			],
			"sparse":{
				"count":5094,
				"indices":{
					"bufferView":117,
					"componentType":5123
				},
				"values":{
					"bufferView":118
				}
			},
			"type":"VEC3"
		},
		{
			"bufferView":119,
			"componentType":5126,
			"count":28461,
			"type":"VEC3"
		},
		{
			"componentType":5126,
			"count":28461,
			"max":[
				0.3700864315032959,
				0.402374267578125,
				0.2622346878051758
			],
			"min":[
				-0.022278547286987305,
				-0.081024169921875,
				-0.0056304931640625
			],
			"sparse":{
				"count":6814,
				"indices":{
					"bufferView":120,
					"componentType":5123
				},
				"values":{
					"bufferView":121
				}
			},
			"type":"VEC3"
		},
		{
			"bufferView":122,
			"componentType":5126,
			"count":28461,
			"type":"VEC3"
		},
		{
			"componentType":5126,
			"count":28461,
			"max":[
				0.09145975112915039,
				0.3562164306640625,
				0.050185203552246094
			],
			"min":[
				-0.021143436431884766,
				-0.03570556640625,
				-0.20226478576660156
			],
			"sparse":{
				"count":2225,
				"indices":{
					"bufferView":123,
					"componentType":5123
				},
				"values":{
					"bufferView":124
				}
			},
			"type":"VEC3"
		},
		{
			"bufferView":125,
			"componentType":5126,
			"count":28461,
			"type":"VEC3"
		},
		{
			"componentType":5126,
			"count":28461,
			"max":[
				0.3054800033569336,
				0.115203857421875,
				0.9914731979370117
			],
			"min":[
				-0.33527708053588867,
				-0.1522064208984375,
				-0.013214588165283203
			],
			"sparse":{
				"count":20176,
				"indices":{
					"bufferView":126,
					"componentType":5123
				},
				"values":{
					"bufferView":127
				}
			},
			"type":"VEC3"
		},
		{
			"bufferView":128,
			"componentType":5126,
			"count":28461,
			"type":"VEC3"
		},
		{
			"componentType":5126,
			"count":28461,
			"max":[
				1.5195844173431396,
				0.47357177734375,
				0.7696609497070312
			],
			"min":[
				-0.19365787506103516,
				-0.1754150390625,
				-0.07246208190917969
			],
			"sparse":{
				"count":23280,
				"indices":{
					"bufferView":129,
					"componentType":5123
				},
				"values":{
					"bufferView":130
				}
			},
			"type":"VEC3"
		},
		{
			"bufferView":131,
			"componentType":5126,
			"count":28461,
			"type":"VEC3"
		},
		{
			"componentType":5126,
			"count":28461,
			"max":[
				0.1562519073486328,
				0.395416259765625,
				0.5442113876342773
			],
			"min":[
				-1.3839768171310425,
				-0.294097900390625,
				-0.04052925109863281
			],
			"sparse":{
				"count":23082,
				"indices":{
					"bufferView":132,
					"componentType":5123
				},
				"values":{
					"bufferView":133
				}
			},
			"type":"VEC3"
		},
		{
			"bufferView":134,
			"componentType":5126,
			"count":28461,
			"type":"VEC3"
		},
		{
			"bufferView":135,
			"componentType":5126,
			"count":28461,
			"max":[
				0.6624205112457275,
				0.0056304931640625,
				0.1369498372077942
			],
			"min":[
				-0.5494730472564697,
				-3.4344482421875,
				-1.9593486785888672
			],
			"type":"VEC3"
		},
		{
			"bufferView":136,
			"componentType":5126,
			"count":28461,
			"type":"VEC3"
		},
		{
			"bufferView":137,
			"componentType":5126,
			"count":28461,
			"max":[
				0.6538419723510742,
				0.0056304931640625,
				0.13696807622909546
			],
			"min":[
				-0.6330788135528564,
				-2.4467010498046875,
				-1.7694377899169922
			],
			"type":"VEC3"
		},
		{
			"bufferView":138,
			"componentType":5126,
			"count":28461,
			"type":"VEC3"
		},
		{
			"componentType":5126,
			"count":28461,
			"max":[
				0.5938894748687744,
				0.8007659912109375,
				0.9802618026733398
			],
			"min":[
				-0.6668708324432373,
				-1.1947479248046875,
				-0.2644615173339844
			],
			"sparse":{
				"count":15778,
				"indices":{
					"bufferView":139,
					"componentType":5123
				},
				"values":{
					"bufferView":140
				}
			},
			"type":"VEC3"
		},
		{
			"bufferView":141,
			"componentType":5126,
			"count":28461,
			"type":"VEC3"
		},
		{
			"componentType":5126,
			"count":28461,
			"max":[
				0.6626948118209839,
				0.224395751953125,
				0.9702701568603516
			],
			"min":[
				-0.7346619367599487,
				-0.14678955078125,
				-0.02279376983642578
			],
			"sparse":{
				"count":15126,
				"indices":{
					"bufferView":142,
					"componentType":5123
				},
				"values":{
					"bufferView":143
				}
			},
			"type":"VEC3"
		},
		{
			"bufferView":144,
			"componentType":5126,
			"count":28461,
			"type":"VEC3"
		},
		{
			"componentType":5126,
			"count":28461,
			"max":[
				0.01872110366821289,
				0.9710693359375,
				1.4277763366699219
			],
			"min":[
				-2.719231128692627,
				-0.238494873046875,
				-1.0402040481567383
			],
			"sparse":{
				"count":17787,
				"indices":{
					"bufferView":145,
					"componentType":5123
				},
				"values":{
					"bufferView":146
				}
			},
			"type":"VEC3"
		},
		{
			"bufferView":147,
			"componentType":5126,
			"count":28461,
			"type":"VEC3"
		},
		{
			"componentType":5126,
			"count":28461,
			"max":[
				2.6988468170166016,
				0.966552734375,
				1.4024658203125
			],
			"min":[
				-0.020168304443359375,
				-0.237518310546875,
				-1.038407325744629
			],
			"sparse":{
				"count":17809,
				"indices":{
					"bufferView":148,
					"componentType":5123
				},
				"values":{
					"bufferView":149
				}
			},
			"type":"VEC3"
		},
		{
			"bufferView":150,
			"componentType":5126,
			"count":28461,
			"type":"VEC3"
		},
		{
			"componentType":5126,
			"count":28461,
			"max":[
				0.610999584197998,
				1.039215087890625,
				0.33200550079345703
			],
			"min":[
				-0.07536065578460693,
				-0.03594970703125,
				-0.6767416000366211
			],
			"sparse":{
				"count":13522,
				"indices":{
					"bufferView":151,
					"componentType":5123
				},
				"values":{
					"bufferView":152
				}
			},
			"type":"VEC3"
		},
		{
			"bufferView":153,
			"componentType":5126,
			"count":28461,
			"type":"VEC3"
		},
		{
			"componentType":5126,
			"count":28461,
			"max":[
				0.05977669358253479,
				1.0673065185546875,
				0.35413455963134766
			],
			"min":[
				-0.6565470695495605,
				-0.03607177734375,
				-0.7545223236083984
			],
			"sparse":{
				"count":13257,
				"indices":{
					"bufferView":154,
					"componentType":5123
				},
				"values":{
					"bufferView":155
				}
			},
			"type":"VEC3"
		},
		{
			"bufferView":156,
			"componentType":5126,
			"count":28461,
			"type":"VEC3"
		},
		{
			"componentType":5126,
			"count":28461,
			"max":[
				0.3023080825805664,
				0.0329742431640625,
				0.17769241333007812
			],
			"min":[
				-0.07455253601074219,
				-0.7814178466796875,
				-0.41927051544189453
			],
			"sparse":{
				"count":10740,
				"indices":{
					"bufferView":157,
					"componentType":5123
				},
				"values":{
					"bufferView":158
				}
			},
			"type":"VEC3"
		},
		{
			"bufferView":159,
			"componentType":5126,
			"count":28461,
			"type":"VEC3"
		},
		{
			"componentType":5126,
			"count":28461,
			"max":[
				0.0861501693725586,
				0.0595550537109375,
				0.19928836822509766
			],
			"min":[
				-0.27799510955810547,
				-0.7117919921875,
				-0.38718700408935547
			],
			"sparse":{
				"count":10576,
				"indices":{
					"bufferView":160,
					"componentType":5123
				},
				"values":{
					"bufferView":161
				}
			},
			"type":"VEC3"
		},
		{
			"bufferView":162,
			"componentType":5126,
			"count":28461,
			"type":"VEC3"
		},
		{
			"componentType":5126,
			"count":28461,
			"max":[
				0.5440061092376709,
				0.7430267333984375,
				0.25751399993896484
			],
			"min":[
				-0.015833377838134766,
				-0.0870513916015625,
				-1.1155014038085938
			],
			"sparse":{
				"count":14366,
				"indices":{
					"bufferView":163,
					"componentType":5123
				},
				"values":{
					"bufferView":164
				}
			},
			"type":"VEC3"
		},
		{
			"bufferView":165,
			"componentType":5126,
			"count":28461,
			"type":"VEC3"
		},
		{
			"componentType":5126,
			"count":28461,
			"max":[
				0.03333473205566406,
				0.741241455078125,
				0.26172542572021484
			],
			"min":[
				-0.5298972129821777,
				-0.092529296875,
				-1.0863666534423828
			],
			"sparse":{
				"count":14566,
				"indices":{
					"bufferView":166,
					"componentType":5123
				},
				"values":{
					"bufferView":167
				}
			},
			"type":"VEC3"
		},
		{
			"bufferView":168,
			"componentType":5126,
			"count":28461,
			"type":"VEC3"
		},
		{
			"componentType":5126,
			"count":28461,
			"max":[
				0.9822027683258057,
				0.1776580810546875,
				0.10533809661865234
			],
			"min":[
				-0.05215954780578613,
				-0.594970703125,
				-1.231459617614746
			],
			"sparse":{
				"count":14879,
				"indices":{
					"bufferView":169,
					"componentType":5123
				},
				"values":{
					"bufferView":170
				}
			},
			"type":"VEC3"
		},
		{
			"bufferView":171,
			"componentType":5126,
			"count":28461,
			"type":"VEC3"
		},
		{
			"componentType":5126,
			"count":28461,
			"max":[
				0.0801384449005127,
				0.166595458984375,
				0.09175825119018555
			],
			"min":[
				-0.9327671527862549,
				-0.5596160888671875,
				-1.3088960647583008
			],
			"sparse":{
				"count":14847,
				"indices":{
					"bufferView":172,
					"componentType":5123
				},
				"values":{
					"bufferView":173
				}
			},
			"type":"VEC3"
		},
		{
			"bufferView":174,
			"componentType":5126,
			"count":28461,
			"type":"VEC3"
		},
		{
			"componentType":5126,
			"count":28461,
			"max":[
				0.14777672290802002,
				0.7411956787109375,
				0.36505985260009766
			],
			"min":[
				-0.17772626876831055,
				-0.1078643798828125,
				-0.9209833145141602
			],
			"sparse":{
				"count":9209,
				"indices":{
					"bufferView":175,
					"componentType":5123
				},
				"values":{
					"bufferView":176
				}
			},
			"type":"VEC3"
		},
		{
			"bufferView":177,
			"componentType":5126,
			"count":28461,
			"type":"VEC3"
		},
		{
			"componentType":5126,
			"count":28461,
			"max":[
				0.0874330997467041,
				0.1674346923828125,
				0.1127023696899414
			],
			"min":[
				-0.18199920654296875,
				-0.732086181640625,
				-0.9501771926879883
			],
			"sparse":{
				"count":13981,
				"indices":{
					"bufferView":178,
					"componentType":5123
				},
				"values":{
					"bufferView":179
				}
			},
			"type":"VEC3"
		},
		{
			"bufferView":180,
			"componentType":5126,
			"count":28461,
			"type":"VEC3"
		},
		{
			"componentType":5126,
			"count":28461,
			"max":[
				0.2573361396789551,
				1.2362518310546875,
				0.5309877395629883
			],
			"min":[
				-0.26760363578796387,
				-0.045989990234375,
				-0.021164655685424805
			],
			"sparse":{
				"count":10235,
				"indices":{
					"bufferView":181,
					"componentType":5123
				},
				"values":{
					"bufferView":182
				}
			},
			"type":"VEC3"
		},
		{
			"bufferView":183,
			"componentType":5126,
			"count":28461,
			"type":"VEC3"
		},
		{
			"componentType":5126,
			"count":28461,
			"max":[
				0.16126775741577148,
				1.0515289306640625,
				0.21730327606201172
			],
			"min":[
				-0.20715761184692383,
				-0.0041656494140625,
				-0.0988149642944336
			],
			"sparse":{
				"count":15188,
				"indices":{
					"bufferView":184,
					"componentType":5123
				},
				"values":{
					"bufferView":185
				}
			},
			"type":"VEC3"
		},
		{
			"bufferView":186,
			"componentType":5126,
			"count":28461,
			"type":"VEC3"
		},
		{
			"componentType":5126,
			"count":28461,
			"max":[
				0.28374552726745605,
				0.43408203125,
				0.20191097259521484
			],
			"min":[
				-0.08897539973258972,
				-0.136016845703125,
				-0.2865781784057617
			],
			"sparse":{
				"count":9546,
				"indices":{
					"bufferView":187,
					"componentType":5123
				},
				"values":{
					"bufferView":188
				}
			},
			"type":"VEC3"
		},
		{
			"bufferView":189,
			"componentType":5126,
			"count":28461,
			"type":"VEC3"
		},
		{
			"componentType":5126,
			"count":28461,
			"max":[
				0.06965035200119019,
				0.45050048828125,
				0.2934083938598633
			],
			"min":[
				-0.16160273551940918,
				-0.13140869140625,
				-0.23894309997558594
			],
			"sparse":{
				"count":9538,
				"indices":{
					"bufferView":190,
					"componentType":5123
				},
				"values":{
					"bufferView":191
				}
			},
			"type":"VEC3"
		},
		{
			"bufferView":192,
			"componentType":5126,
			"count":28461,
			"type":"VEC3"
		},
		{
			"componentType":5126,
			"count":28461,
			"max":[
				0.16314399242401123,
				0.023193359375,
				0.1151876449584961
			],
			"min":[
				-0.045571327209472656,
				-0.81219482421875,
				-0.1666889190673828
			],
			"sparse":{
				"count":8143,
				"indices":{
					"bufferView":193,
					"componentType":5123
				},
				"values":{
					"bufferView":194
				}
			},
			"type":"VEC3"
		},
		{
			"bufferView":195,
			"componentType":5126,
			"count":28461,
			"type":"VEC3"
		},
		{
			"componentType":5126,
			"count":28461,
			"max":[
				0.07268524169921875,
				0.0120086669921875,
				0.1445627212524414
			],
			"min":[
				-0.20776522159576416,
				-0.7546844482421875,
				-0.16153430938720703
			],
			"sparse":{
				"count":8288,
				"indices":{
					"bufferView":196,
					"componentType":5123
				},
				"values":{
					"bufferView":197
				}
			},
			"type":"VEC3"
		},
		{
			"bufferView":198,
			"componentType":5126,
			"count":28461,
			"type":"VEC3"
		},
		{
			"componentType":5126,
			"count":28461,
			"max":[
				0.28844690322875977,
				1.0817108154296875,
				0.2163066864013672
			],
			"min":[
				-0.05072307586669922,
				-0.0536956787109375,
				-0.4176931381225586
			],
			"sparse":{
				"count":12987,
				"indices":{
					"bufferView":199,
					"componentType":5123
				},
				"values":{
					"bufferView":200
				}
			},
			"type":"VEC3"
		},
		{
			"bufferView":201,
			"componentType":5126,
			"count":28461,
			"type":"VEC3"
		},
		{
			"componentType":5126,
			"count":28461,
			"max":[
				0.04962968826293945,
				1.1061553955078125,
				0.21854114532470703
			],
			"min":[
				-0.3299182653427124,
				-0.06036376953125,
				-0.4133796691894531
			],
			"sparse":{
				"count":13072,
				"indices":{
					"bufferView":202,
					"componentType":5123
				},
				"values":{
					"bufferView":203
				}
			},
			"type":"VEC3"
		},
		{
			"bufferView":204,
			"componentType":5126,
			"count":28461,
			"type":"VEC3"
		},
		{
			"componentType":5126,
			"count":28461,
			"max":[
				0.02917248010635376,
				0.021209716796875,
				0.30492496490478516
			],
			"min":[
				-0.06643056869506836,
				-0.59765625,
				-0.015925288200378418
			],
			"sparse":{
				"count":6063,
				"indices":{
					"bufferView":205,
					"componentType":5123
				},
				"values":{
					"bufferView":206
				}
			},
			"type":"VEC3"
		},
		{
			"bufferView":207,
			"componentType":5126,
			"count":28461,
			"type":"VEC3"
		},
		{
			"componentType":5126,
			"count":28461,
			"max":[
				0.06670236587524414,
				0.0159454345703125,
				0.2949800491333008
			],
			"min":[
				-0.008590489625930786,
				-0.5696563720703125,
				-0.0027074813842773438
			],
			"sparse":{
				"count":6346,
				"indices":{
					"bufferView":208,
					"componentType":5123
				},
				"values":{
					"bufferView":209
				}
			},
			"type":"VEC3"
		},
		{
			"bufferView":210,
			"componentType":5126,
			"count":28461,
			"type":"VEC3"
		},
		{
			"componentType":5126,
			"count":28461,
			"max":[
				0.18052899837493896,
				1.0474395751953125,
				0.4296388626098633
			],
			"min":[
				-0.20524275302886963,
				-0.308441162109375,
				-0.26314449310302734
			],
			"sparse":{
				"count":14138,
				"indices":{
					"bufferView":211,
					"componentType":5123
				},
				"values":{
					"bufferView":212
				}
			},
			"type":"VEC3"
		},
		{
			"bufferView":213,
			"componentType":5126,
			"count":28461,
			"type":"VEC3"
		},
		{
			"componentType":5126,
			"count":28461,
			"max":[
				0.2797842025756836,
				1.0118408203125,
				0.17626428604125977
			],
			"min":[
				-0.05169486999511719,
				-0.1098785400390625,
				-0.32902050018310547
			],
			"sparse":{
				"count":10292,
				"indices":{
					"bufferView":214,
					"componentType":5123
				},
				"values":{
					"bufferView":215
				}
			},
			"type":"VEC3"
		},
		{
			"bufferView":216,
			"componentType":5126,
			"count":28461,
			"type":"VEC3"
		},
		{
			"componentType":5126,
			"count":28461,
			"max":[
				0.07441043853759766,
				1.0316009521484375,
				0.16379928588867188
			],
			"min":[
				-0.2988772392272949,
				-0.1186065673828125,
				-0.2922782897949219
			],
			"sparse":{
				"count":9496,
				"indices":{
					"bufferView":217,
					"componentType":5123
				},
				"values":{
					"bufferView":218
				}
			},
			"type":"VEC3"
		},
		{
			"bufferView":219,
			"componentType":5126,
			"count":28461,
			"type":"VEC3"
		},
		{
			"componentType":5126,
			"count":28461,
			"max":[
				0.7365522384643555,
				0.4699554443359375,
				1.3195266723632812
			],
			"min":[
				-0.7373104095458984,
				-0.0712738037109375,
				-0.08131980895996094
			],
			"sparse":{
				"count":16838,
				"indices":{
					"bufferView":220,
					"componentType":5123
				},
				"values":{
					"bufferView":221
				}
			},
			"type":"VEC3"
		},
		{
			"bufferView":222,
			"componentType":5126,
			"count":28461,
			"type":"VEC3"
		},
		{
			"componentType":5126,
			"count":28461,
			"max":[
				0.09294557571411133,
				0.5325927734375,
				0.3800468444824219
			],
			"min":[
				-0.1881875991821289,
				-0.2298431396484375,
				-0.05470466613769531
			],
			"sparse":{
				"count":12941,
				"indices":{
					"bufferView":223,
					"componentType":5123
				},
				"values":{
					"bufferView":224
				}
			},
			"type":"VEC3"
		},
		{
			"bufferView":225,
			"componentType":5126,
			"count":28461,
			"type":"VEC3"
		},
		{
			"componentType":5126,
			"count":28461,
			"max":[
				0.15038418769836426,
				0.5815582275390625,
				0.42313098907470703
			],
			"min":[
				-0.07497692108154297,
				-0.237030029296875,
				-0.06462669372558594
			],
			"sparse":{
				"count":12779,
				"indices":{
					"bufferView":226,
					"componentType":5123
				},
				"values":{
					"bufferView":227
				}
			},
			"type":"VEC3"
		},
		{
			"bufferView":228,
			"componentType":5126,
			"count":28461,
			"type":"VEC3"
		},
		{
			"componentType":5126,
			"count":28461,
			"max":[
				0.2100076675415039,
				1.0633087158203125,
				0.42051219940185547
			],
			"min":[
				-0.19566965103149414,
				-0.0294647216796875,
				-0.13359737396240234
			],
			"sparse":{
				"count":11665,
				"indices":{
					"bufferView":229,
					"componentType":5123
				},
				"values":{
					"bufferView":230
				}
			},
			"type":"VEC3"
		},
		{
			"bufferView":231,
			"componentType":5126,
			"count":28461,
			"type":"VEC3"
		},
		{
			"componentType":5126,
			"count":28461,
			"max":[
				0.2092115879058838,
				1.104827880859375,
				0.45508480072021484
			],
			"min":[
				-0.11465013027191162,
				-0.03466796875,
				-0.10752105712890625
			],
			"sparse":{
				"count":11878,
				"indices":{
					"bufferView":232,
					"componentType":5123
				},
				"values":{
					"bufferView":233
				}
			},
			"type":"VEC3"
		},
		{
			"bufferView":234,
			"componentType":5126,
			"count":28461,
			"type":"VEC3"
		},
		{
			"bufferView":235,
			"componentType":5126,
			"count":2325,
			"max":[
				3.555861473083496,
				159.2568359375,
				11.628412246704102
			],
			"min":[
				-3.564828395843506,
				153.83827209472656,
				3.404855728149414
			],
			"type":"VEC3"
		},
		{
			"bufferView":236,
			"componentType":5126,
			"count":2325,
			"type":"VEC3"
		},
		{
			"bufferView":237,
			"componentType":5126,
			"count":2325,
			"type":"VEC2"
		},
		{
			"bufferView":238,
			"componentType":5126,
			"count":2325,
			"type":"VEC2"
		},
		{
			"bufferView":239,
			"componentType":5123,
			"count":10980,
			"type":"SCALAR"
		},
		{
			"componentType":5126,
			"count":2325,
			"max":[
				0,
				1.52587890625e-05,
				0.8593969345092773
			],
			"min":[
				0,
				0,
				0
			],
			"sparse":{
				"count":1499,
				"indices":{
					"bufferView":240,
					"componentType":5123
				},
				"values":{
					"bufferView":241
				}
			},
			"type":"VEC3"
		},
		{
			"bufferView":242,
			"componentType":5126,
			"count":2325,
			"type":"VEC3"
		},
		{
			"componentType":5126,
			"count":2325,
			"max":[
				1.386190414428711,
				0.2942352294921875,
				0.7226834297180176
			],
			"min":[
				0,
				-0.428192138671875,
				-0.12500476837158203
			],
			"sparse":{
				"count":1499,
				"indices":{
					"bufferView":243,
					"componentType":5123
				},
				"values":{
					"bufferView":244
				}
			},
			"type":"VEC3"
		},
		{
			"bufferView":245,
			"componentType":5126,
			"count":2325,
			"type":"VEC3"
		},
		{
			"componentType":5126,
			"count":2325,
			"max":[
				0,
				0.2760009765625,
				0.7469916343688965
			],
			"min":[
				-1.3887299299240112,
				-0.44989013671875,
				-0.10117673873901367
			],
			"sparse":{
				"count":1499,
				"indices":{
					"bufferView":246,
					"componentType":5123
				},
				"values":{
					"bufferView":247
				}
			},
			"type":"VEC3"
		},
		{
			"bufferView":248,
			"componentType":5126,
			"count":2325,
			"type":"VEC3"
		},
		{
			"componentType":5126,
			"count":2325,
			"max":[
				0.059147000312805176,
				0.000457763671875,
				0.00037860870361328125
			],
			"min":[
				0,
				-3.269378662109375,
				-2.0119876861572266
			],
			"sparse":{
				"count":1499,
				"indices":{
					"bufferView":249,
					"componentType":5123
				},
				"values":{
					"bufferView":250
				}
			},
			"type":"VEC3"
		},
		{
			"bufferView":251,
			"componentType":5126,
			"count":2325,
			"type":"VEC3"
		},
		{
			"componentType":5126,
			"count":2325,
			"max":[
				0.059147000312805176,
				0.000457763671875,
				0.00037860870361328125
			],
			"min":[
				0,
				-3.269378662109375,
				-2.0119876861572266
			],
			"sparse":{
				"count":1499,
				"indices":{
					"bufferView":252,
					"componentType":5123
				},
				"values":{
					"bufferView":253
				}
			},
			"type":"VEC3"
		},
		{
			"bufferView":254,
			"componentType":5126,
			"count":2325,
			"type":"VEC3"
		},
		{
			"bufferView":255,
			"componentType":5126,
			"count":2637,
			"max":[
				3.283276319503784,
				158.07440185546875,
				11.599884033203125
			],
			"min":[
				-3.3083081245422363,
				156.03375244140625,
				6.704000949859619
			],
			"type":"VEC3"
		},
		{
			"bufferView":256,
			"componentType":5126,
			"count":2637,
			"type":"VEC3"
		},
		{
			"bufferView":257,
			"componentType":5126,
			"count":2637,
			"type":"VEC2"
		},
		{
			"bufferView":258,
			"componentType":5126,
			"count":2637,
			"type":"VEC2"
		},
		{
			"bufferView":259,
			"componentType":5123,
			"count":14070,
			"type":"SCALAR"
		},
		{
			"componentType":5126,
			"count":2637,
			"max":[
				0,
				0,
				0.8593964576721191
			],
			"min":[
				0,
				0,
				0
			],
			"sparse":{
				"count":1321,
				"indices":{
					"bufferView":260,
					"componentType":5123
				},
				"values":{
					"bufferView":261
				}
			},
			"type":"VEC3"
		},
		{
			"bufferView":262,
			"componentType":5126,
			"count":2637,
			"type":"VEC3"
		},
		{
			"componentType":5126,
			"count":2637,
			"max":[
				1.315453052520752,
				0.2329559326171875,
				0.7066941261291504
			],
			"min":[
				0,
				-0.41802978515625,
				-0.06676530838012695
			],
			"sparse":{
				"count":1321,
				"indices":{
					"bufferView":263,
					"componentType":5123
				},
				"values":{
					"bufferView":264
				}
			},
			"type":"VEC3"
		},
		{
			"bufferView":265,
			"componentType":5126,
			"count":2637,
			"type":"VEC3"
		},
		{
			"componentType":5126,
			"count":2637,
			"max":[
				0,
				0.2121734619140625,
				0.7321434020996094
			],
			"min":[
				-1.3196839094161987,
				-0.4401092529296875,
				-0.04141521453857422
			],
			"sparse":{
				"count":1321,
				"indices":{
					"bufferView":266,
					"componentType":5123
				},
				"values":{
					"bufferView":267
				}
			},
			"type":"VEC3"
		},
		{
			"bufferView":268,
			"componentType":5126,
			"count":2637,
			"type":"VEC3"
		},
		{
			"componentType":5126,
			"count":2637,
			"max":[
				0.043166160583496094,
				0,
				0
			],
			"min":[
				-0.0017061084508895874,
				-3.3765869140625,
				-1.657571792602539
			],
			"sparse":{
				"count":1321,
				"indices":{
					"bufferView":269,
					"componentType":5123
				},
				"values":{
					"bufferView":270
				}
			},
			"type":"VEC3"
		},
		{
			"bufferView":271,
			"componentType":5126,
			"count":2637,
			"type":"VEC3"
		},
		{
			"componentType":5126,
			"count":2637,
			"max":[
				0.043166160583496094,
				0,
				0
			],
			"min":[
				-0.0017061084508895874,
				-3.3765869140625,
				-1.657571792602539
			],
			"sparse":{
				"count":1321,
				"indices":{
					"bufferView":272,
					"componentType":5123
				},
				"values":{
					"bufferView":273
				}
			},
			"type":"VEC3"
		},
		{
			"bufferView":274,
			"componentType":5126,
			"count":2637,
			"type":"VEC3"
		},
		{
			"bufferView":275,
			"componentType":5126,
			"count":511,
			"max":[
				20.52
			],
			"min":[
				0.12
			],
			"type":"SCALAR"
		},
		{
			"bufferView":276,
			"componentType":5126,
			"count":2044,
			"type":"SCALAR"
		},
		{
			"bufferView":277,
			"componentType":5126,
			"count":2044,
			"type":"SCALAR"
		},
		{
			"bufferView":278,
			"componentType":5126,
			"count":26061,
			"type":"SCALAR"
		},
		{
			"bufferView":279,
			"componentType":5126,
			"count":2555,
			"type":"SCALAR"
		}
	],
	"bufferViews":[
		{
			"buffer":0,
			"byteLength":9600,
			"byteOffset":0,
			"target":34962
		},
		{
			"buffer":0,
			"byteLength":9600,
			"byteOffset":9600,
			"target":34962
		},
		{
			"buffer":0,
			"byteLength":6400,
			"byteOffset":19200,
			"target":34962
		},
		{
			"buffer":0,
			"byteLength":6400,
			"byteOffset":25600,
			"target":34962
		},
		{
			"buffer":0,
			"byteLength":7488,
			"byteOffset":32000,
			"target":34963
		},
		{
			"buffer":0,
			"byteLength":9600,
			"byteOffset":39488,
			"target":34962
		},
		{
			"buffer":0,
			"byteLength":9600,
			"byteOffset":49088,
			"target":34962
		},
		{
			"buffer":0,
			"byteLength":9600,
			"byteOffset":58688,
			"target":34962
		},
		{
			"buffer":0,
			"byteLength":9600,
			"byteOffset":68288,
			"target":34962
		},
		{
			"buffer":0,
			"byteLength":9600,
			"byteOffset":77888,
			"target":34962
		},
		{
			"buffer":0,
			"byteLength":9600,
			"byteOffset":87488,
			"target":34962
		},
		{
			"buffer":0,
			"byteLength":9600,
			"byteOffset":97088,
			"target":34962
		},
		{
			"buffer":0,
			"byteLength":9600,
			"byteOffset":106688,
			"target":34962
		},
		{
			"buffer":0,
			"byteLength":1536,
			"byteOffset":116288,
			"target":34962
		},
		{
			"buffer":0,
			"byteLength":1536,
			"byteOffset":117824,
			"target":34962
		},
		{
			"buffer":0,
			"byteLength":1024,
			"byteOffset":119360,
			"target":34962
		},
		{
			"buffer":0,
			"byteLength":1024,
			"byteOffset":120384,
			"target":34962
		},
		{
			"buffer":0,
			"byteLength":1152,
			"byteOffset":121408,
			"target":34963
		},
		{
			"buffer":0,
			"byteLength":1536,
			"byteOffset":122560,
			"target":34962
		},
		{
			"buffer":0,
			"byteLength":1536,
			"byteOffset":124096,
			"target":34962
		},
		{
			"buffer":0,
			"byteLength":1536,
			"byteOffset":125632,
			"target":34962
		},
		{
			"buffer":0,
			"byteLength":1536,
			"byteOffset":127168,
			"target":34962
		},
		{
			"buffer":0,
			"byteLength":1536,
			"byteOffset":128704,
			"target":34962
		},
		{
			"buffer":0,
			"byteLength":1536,
			"byteOffset":130240,
			"target":34962
		},
		{
			"buffer":0,
			"byteLength":1536,
			"byteOffset":131776,
			"target":34962
		},
		{
			"buffer":0,
			"byteLength":1536,
			"byteOffset":133312,
			"target":34962
		},
		{
			"buffer":0,
			"byteLength":780,
			"byteOffset":134848,
			"target":34962
		},
		{
			"buffer":0,
			"byteLength":780,
			"byteOffset":135628,
			"target":34962
		},
		{
			"buffer":0,
			"byteLength":520,
			"byteOffset":136408,
			"target":34962
		},
		{
			"buffer":0,
			"byteLength":520,
			"byteOffset":136928,
			"target":34962
		},
		{
			"buffer":0,
			"byteLength":576,
			"byteOffset":137448,
			"target":34963
		},
		{
			"buffer":0,
			"byteLength":780,
			"byteOffset":138024,
			"target":34962
		},
		{
			"buffer":0,
			"byteLength":780,
			"byteOffset":138804,
			"target":34962
		},
		{
			"buffer":0,
			"byteLength":780,
			"byteOffset":139584,
			"target":34962
		},
		{
			"buffer":0,
			"byteLength":780,
			"byteOffset":140364,
			"target":34962
		},
		{
			"buffer":0,
			"byteLength":780,
			"byteOffset":141144,
			"target":34962
		},
		{
			"buffer":0,
			"byteLength":780,
			"byteOffset":141924,
			"target":34962
		},
		{
			"buffer":0,
			"byteLength":780,
			"byteOffset":142704,
			"target":34962
		},
		{
			"buffer":0,
			"byteLength":780,
			"byteOffset":143484,
			"target":34962
		},
		{
			"buffer":0,
			"byteLength":1536,
			"byteOffset":144264,
			"target":34962
		},
		{
			"buffer":0,
			"byteLength":1536,
			"byteOffset":145800,
			"target":34962
		},
		{
			"buffer":0,
			"byteLength":1024,
			"byteOffset":147336,
			"target":34962
		},
		{
			"buffer":0,
			"byteLength":1024,
			"byteOffset":148360,
			"target":34962
		},
		{
			"buffer":0,
			"byteLength":1024,
			"byteOffset":149384,
			"target":34962
		},
		{
			"buffer":0,
			"byteLength":1536,
			"byteOffset":150408,
			"target":34962
		},
		{
			"buffer":0,
			"byteLength":1536,
			"byteOffset":151944,
			"target":34962
		},
		{
			"buffer":0,
			"byteLength":1536,
			"byteOffset":153480,
			"target":34962
		},
		{
			"buffer":0,
			"byteLength":1536,
			"byteOffset":155016,
			"target":34962
		},
		{
			"buffer":0,
			"byteLength":1536,
			"byteOffset":156552,
			"target":34962
		},
		{
			"buffer":0,
			"byteLength":1536,
			"byteOffset":158088,
			"target":34962
		},
		{
			"buffer":0,
			"byteLength":1536,
			"byteOffset":159624,
			"target":34962
		},
		{
			"buffer":0,
			"byteLength":1536,
			"byteOffset":161160,
			"target":34962
		},
		{
			"buffer":0,
			"byteLength":9600,
			"byteOffset":162696,
			"target":34962
		},
		{
			"buffer":0,
			"byteLength":9600,
			"byteOffset":172296,
			"target":34962
		},
		{
			"buffer":0,
			"byteLength":6400,
			"byteOffset":181896,
			"target":34962
		},
		{
			"buffer":0,
			"byteLength":6400,
			"byteOffset":188296,
			"target":34962
		},
		{
			"buffer":0,
			"byteLength":6400,
			"byteOffset":194696,
			"target":34962
		},
		{
			"buffer":0,
			"byteLength":7488,
			"byteOffset":201096,
			"target":34963
		},
		{
			"buffer":0,
			"byteLength":9600,
			"byteOffset":208584,
			"target":34962
		},
		{
			"buffer":0,
			"byteLength":9600,
			"byteOffset":218184,
			"target":34962
		},
		{
			"buffer":0,
			"byteLength":9600,
			"byteOffset":227784,
			"target":34962
		},
		{
			"buffer":0,
			"byteLength":9600,
			"byteOffset":237384,
			"target":34962
		},
		{
			"buffer":0,
			"byteLength":9600,
			"byteOffset":246984,
			"target":34962
		},
		{
			"buffer":0,
			"byteLength":9600,
			"byteOffset":256584,
			"target":34962
		},
		{
			"buffer":0,
			"byteLength":9600,
			"byteOffset":266184,
			"target":34962
		},
		{
			"buffer":0,
			"byteLength":9600,
			"byteOffset":275784,
			"target":34962
		},
		{
			"buffer":0,
			"byteLength":780,
			"byteOffset":285384,
			"target":34962
		},
		{
			"buffer":0,
			"byteLength":780,
			"byteOffset":286164,
			"target":34962
		},
		{
			"buffer":0,
			"byteLength":520,
			"byteOffset":286944,
			"target":34962
		},
		{
			"buffer":0,
			"byteLength":520,
			"byteOffset":287464,
			"target":34962
		},
		{
			"buffer":0,
			"byteLength":520,
			"byteOffset":287984,
			"target":34962
		},
		{
			"buffer":0,
			"byteLength":780,
			"byteOffset":288504,
			"target":34962
		},
		{
			"buffer":0,
			"byteLength":780,
			"byteOffset":289284,
			"target":34962
		},
		{
			"buffer":0,
			"byteLength":780,
			"byteOffset":290064,
			"target":34962
		},
		{
			"buffer":0,
			"byteLength":780,
			"byteOffset":290844,
			"target":34962
		},
		{
			"buffer":0,
			"byteLength":780,
			"byteOffset":291624,
			"target":34962
		},
		{
			"buffer":0,
			"byteLength":780,
			"byteOffset":292404,
			"target":34962
		},
		{
			"buffer":0,
			"byteLength":780,
			"byteOffset":293184,
			"target":34962
		},
		{
			"buffer":0,
			"byteLength":780,
			"byteOffset":293964,
			"target":34962
		},
		{
			"buffer":0,
			"byteLength":341532,
			"byteOffset":294744,
			"target":34962
		},
		{
			"buffer":0,
			"byteLength":341532,
			"byteOffset":636276,
			"target":34962
		},
		{
			"buffer":0,
			"byteLength":227688,
			"byteOffset":977808,
			"target":34962
		},
		{
			"buffer":0,
			"byteLength":227688,
			"byteOffset":1205496,
			"target":34962
		},
		{
			"buffer":0,
			"byteLength":288024,
			"byteOffset":1433184,
			"target":34963
		},
		{
			"buffer":0,
			"byteLength":11576,
			"byteOffset":1721208
		},
		{
			"buffer":0,
			"byteLength":69456,
			"byteOffset":1732784
		},
		{
			"buffer":0,
			"byteLength":341532,
			"byteOffset":1802240,
			"target":34962
		},
		{
			"buffer":0,
			"byteLength":10100,
			"byteOffset":2143772
		},
		{
			"buffer":0,
			"byteLength":60600,
			"byteOffset":2153872
		},
		{
			"buffer":0,
			"byteLength":341532,
			"byteOffset":2214472,
			"target":34962
		},
		{
			"buffer":0,
			"byteLength":9910,
			"byteOffset":2556004
		},
		{
			"buffer":0,
			"byteLength":59460,
			"byteOffset":2565916
		},
		{
			"buffer":0,
			"byteLength":341532,
			"byteOffset":2625376,
			"target":34962
		},
		{
			"buffer":0,
			"byteLength":10020,
			"byteOffset":2966908
		},
		{
			"buffer":0,
			"byteLength":60120,
			"byteOffset":2976928
		},
		{
			"buffer":0,
			"byteLength":341532,
			"byteOffset":3037048,
			"target":34962
		},
		{
			"buffer":0,
			"byteLength":10212,
			"byteOffset":3378580
		},
		{
			"buffer":0,
			"byteLength":61272,
			"byteOffset":3388792
		},
		{
			"buffer":0,
			"byteLength":341532,
			"byteOffset":3450064,
			"target":34962
		},
		{
			"buffer":0,
			"byteLength":14548,
			"byteOffset":3791596
		},
		{
			"buffer":0,
			"byteLength":87288,
			"byteOffset":3806144
		},
		{
			"buffer":0,
			"byteLength":341532,
			"byteOffset":3893432,
			"target":34962
		},
		{
			"buffer":0,
			"byteLength":9624,
			"byteOffset":4234964
		},
		{
			"buffer":0,
			"byteLength":57744,
			"byteOffset":4244588
		},
		{
			"buffer":0,
			"byteLength":341532,
			"byteOffset":4302332,
			"target":34962
		},
		{
			"buffer":0,
			"byteLength":11270,
			"byteOffset":4643864
		},
		{
			"buffer":0,
			"byteLength":67620,
			"byteOffset":4655136
		},
		{
			"buffer":0,
			"byteLength":341532,
			"byteOffset":4722756,
			"target":34962
		},
		{
			"buffer":0,
			"byteLength":9874,
			"byteOffset":5064288
		},
		{
			"buffer":0,
			"byteLength":59244,
			"byteOffset":5074164
		},
		{
			"buffer":0,
			"byteLength":341532,
			"byteOffset":5133408,
			"target":34962
		},
		{
			"buffer":0,
			"byteLength":9940,
			"byteOffset":5474940
		},
		{
			"buffer":0,
			"byteLength":59640,
			"byteOffset":5484880
		},
		{
			"buffer":0,
			"byteLength":341532,
			"byteOffset":5544520,
			"target":34962
		},
		{
			"buffer":0,
			"byteLength":9964,
			"byteOffset":5886052
		},
		{
			"buffer":0,
			"byteLength":59784,
			"byteOffset":5896016
		},
		{
			"buffer":0,
			"byteLength":341532,
			"byteOffset":5955800,
			"target":34962
		},
		{
			"buffer":0,
			"byteLength":10188,
			"byteOffset":6297332
		},
		{
			"buffer":0,
			"byteLength":61128,
			"byteOffset":6307520
		},
		{
			"buffer":0,
			"byteLength":341532,
			"byteOffset":6368648,
			"target":34962
		},
		{
			"buffer":0,
			"byteLength":13628,
			"byteOffset":6710180
		},
		{
			"buffer":0,
			"byteLength":81768,
			"byteOffset":6723808
		},
		{
			"buffer":0,
			"byteLength":341532,
			"byteOffset":6805576,
			"target":34962
		},
		{
			"buffer":0,
			"byteLength":4450,
			"byteOffset":7147108
		},
		{
			"buffer":0,
			"byteLength":26700,
			"byteOffset":7151560
		},
		{
			"buffer":0,
			"byteLength":341532,
			"byteOffset":7178260,
			"target":34962
		},
		{
			"buffer":0,
			"byteLength":40352,
			"byteOffset":7519792
		},
		{
			"buffer":0,
			"byteLength":242112,
			"byteOffset":7560144
		},
		{
			"buffer":0,
			"byteLength":341532,
			"byteOffset":7802256,
			"target":34962
		},
		{
			"buffer":0,
			"byteLength":46560,
			"byteOffset":8143788
		},
		{
			"buffer":0,
			"byteLength":279360,
			"byteOffset":8190348
		},
		{
			"buffer":0,
			"byteLength":341532,
			"byteOffset":8469708,
			"target":34962
		},
		{
			"buffer":0,
			"byteLength":46164,
			"byteOffset":8811240
		},
		{
			"buffer":0,
			"byteLength":276984,
			"byteOffset":8857404
		},
		{
			"buffer":0,
			"byteLength":341532,
			"byteOffset":9134388,
			"target":34962
		},
		{
			"buffer":0,
			"byteLength":341532,
			"byteOffset":9475920,
			"target":34962
		},
		{
			"buffer":0,
			"byteLength":341532,
			"byteOffset":9817452,
			"target":34962
		},
		{
			"buffer":0,
			"byteLength":341532,
			"byteOffset":10158984,
			"target":34962
		},
		{
			"buffer":0,
			"byteLength":341532,
			"byteOffset":10500516,
			"target":34962
		},
		{
			"buffer":0,
			"byteLength":31556,
			"byteOffset":10842048
		},
		{
			"buffer":0,
			"byteLength":189336,
			"byteOffset":10873604
		},
		{
			"buffer":0,
			"byteLength":341532,
			"byteOffset":11062940,
			"target":34962
		},
		{
			"buffer":0,
			"byteLength":30252,
			"byteOffset":11404472
		},
		{
			"buffer":0,
			"byteLength":181512,
			"byteOffset":11434724
		},
		{
			"buffer":0,
			"byteLength":341532,
			"byteOffset":11616236,
			"target":34962
		},
		{
			"buffer":0,
			"byteLength":35574,
			"byteOffset":11957768
		},
		{
			"buffer":0,
			"byteLength":213444,
			"byteOffset":11993344
		},
		{
			"buffer":0,
			"byteLength":341532,
			"byteOffset":12206788,
			"target":34962
		},
		{
			"buffer":0,
			"byteLength":35618,
			"byteOffset":12548320
		},
		{
			"buffer":0,
			"byteLength":213708,
			"byteOffset":12583940
		},
		{
			"buffer":0,
			"byteLength":341532,
			"byteOffset":12797648,
			"target":34962
		},
		{
			"buffer":0,
			"byteLength":27044,
			"byteOffset":13139180
		},
		{
			"buffer":0,
			"byteLength":162264,
			"byteOffset":13166224
		},
		{
			"buffer":0,
			"byteLength":341532,
			"byteOffset":13328488,
			"target":34962
		},
		{
			"buffer":0,
			"byteLength":26514,
			"byteOffset":13670020
		},
		{
			"buffer":0,
			"byteLength":159084,
			"byteOffset":13696536
		},
		{
			"buffer":0,
			"byteLength":341532,
			"byteOffset":13855620,
			"target":34962
		},
		{
			"buffer":0,
			"byteLength":21480,
			"byteOffset":14197152
		},
		{
			"buffer":0,
			"byteLength":128880,
			"byteOffset":14218632
		},
		{
			"buffer":0,
			"byteLength":341532,
			"byteOffset":14347512,
			"target":34962
		},
		{
			"buffer":0,
			"byteLength":21152,
			"byteOffset":14689044
		},
		{
			"buffer":0,
			"byteLength":126912,
			"byteOffset":14710196
		},
		{
			"buffer":0,
			"byteLength":341532,
			"byteOffset":14837108,
			"target":34962
		},
		{
			"buffer":0,
			"byteLength":28732,
			"byteOffset":15178640
		},
		{
			"buffer":0,
			"byteLength":172392,
			"byteOffset":15207372
		},
		{
			"buffer":0,
			"byteLength":341532,
			"byteOffset":15379764,
			"target":34962
		},
		{
			"buffer":0,
			"byteLength":29132,
			"byteOffset":15721296
		},
		{
			"buffer":0,
			"byteLength":174792,
			"byteOffset":15750428
		},
		{
			"buffer":0,
			"byteLength":341532,
			"byteOffset":15925220,
			"target":34962
		},
		{
			"buffer":0,
			"byteLength":29758,
			"byteOffset":16266752
		},
		{
			"buffer":0,
			"byteLength":178548,
			"byteOffset":16296512
		},
		{
			"buffer":0,
			"byteLength":341532,
			"byteOffset":16475060,
			"target":34962
		},
		{
			"buffer":0,
			"byteLength":29694,
			"byteOffset":16816592
		},
		{
			"buffer":0,
			"byteLength":178164,
			"byteOffset":16846288
		},
		{
			"buffer":0,
			"byteLength":341532,
			"byteOffset":17024452,
			"target":34962
		},
		{
			"buffer":0,
			"byteLength":18418,
			"byteOffset":17365984
		},
		{
			"buffer":0,
			"byteLength":110508,
			"byteOffset":17384404
		},
		{
			"buffer":0,
			"byteLength":341532,
			"byteOffset":17494912,
			"target":34962
		},
		{
			"buffer":0,
			"byteLength":27962,
			"byteOffset":17836444
		},
		{
			"buffer":0,
			"byteLength":167772,
			"byteOffset":17864408
		},
		{
			"buffer":0,
			"byteLength":341532,
			"byteOffset":18032180,
			"target":34962
		},
		{
			"buffer":0,
			"byteLength":20470,
			"byteOffset":18373712
		},
		{
			"buffer":0,
			"byteLength":122820,
			"byteOffset":18394184
		},
		{
			"buffer":0,
			"byteLength":341532,
			"byteOffset":18517004,
			"target":34962
		},
		{
			"buffer":0,
			"byteLength":30376,
			"byteOffset":18858536
		},
		{
			"buffer":0,
			"byteLength":182256,
			"byteOffset":18888912
		},
		{
			"buffer":0,
			"byteLength":341532,
			"byteOffset":19071168,
			"target":34962
		},
		{
			"buffer":0,
			"byteLength":19092,
			"byteOffset":19412700
		},
		{
			"buffer":0,
			"byteLength":114552,
			"byteOffset":19431792
		},
		{
			"buffer":0,
			"byteLength":341532,
			"byteOffset":19546344,
			"target":34962
		},
		{
			"buffer":0,
			"byteLength":19076,
			"byteOffset":19887876
		},
		{
			"buffer":0,
			"byteLength":114456,
			"byteOffset":19906952
		},
		{
			"buffer":0,
			"byteLength":341532,
			"byteOffset":20021408,
			"target":34962
		},
		{
			"buffer":0,
			"byteLength":16286,
			"byteOffset":20362940
		},
		{
			"buffer":0,
			"byteLength":97716,
			"byteOffset":20379228
		},
		{
			"buffer":0,
			"byteLength":341532,
			"byteOffset":20476944,
			"target":34962
		},
		{
			"buffer":0,
			"byteLength":16576,
			"byteOffset":20818476
		},
		{
			"buffer":0,
			"byteLength":99456,
			"byteOffset":20835052
		},
		{
			"buffer":0,
			"byteLength":341532,
			"byteOffset":20934508,
			"target":34962
		},
		{
			"buffer":0,
			"byteLength":25974,
			"byteOffset":21276040
		},
		{
			"buffer":0,
			"byteLength":155844,
			"byteOffset":21302016
		},
		{
			"buffer":0,
			"byteLength":341532,
			"byteOffset":21457860,
			"target":34962
		},
		{
			"buffer":0,
			"byteLength":26144,
			"byteOffset":21799392
		},
		{
			"buffer":0,
			"byteLength":156864,
			"byteOffset":21825536
		},
		{
			"buffer":0,
			"byteLength":341532,
			"byteOffset":21982400,
			"target":34962
		},
		{
			"buffer":0,
			"byteLength":12126,
			"byteOffset":22323932
		},
		{
			"buffer":0,
			"byteLength":72756,
			"byteOffset":22336060
		},
		{
			"buffer":0,
			"byteLength":341532,
			"byteOffset":22408816,
			"target":34962
		},
		{
			"buffer":0,
			"byteLength":12692,
			"byteOffset":22750348
		},
		{
			"buffer":0,
			"byteLength":76152,
			"byteOffset":22763040
		},
		{
			"buffer":0,
			"byteLength":341532,
			"byteOffset":22839192,
			"target":34962
		},
		{
			"buffer":0,
			"byteLength":28276,
			"byteOffset":23180724
		},
		{
			"buffer":0,
			"byteLength":169656,
			"byteOffset":23209000
		},
		{
			"buffer":0,
			"byteLength":341532,
			"byteOffset":23378656,
			"target":34962
		},
		{
			"buffer":0,
			"byteLength":20584,
			"byteOffset":23720188
		},
		{
			"buffer":0,
			"byteLength":123504,
			"byteOffset":23740772
		},
		{
			"buffer":0,
			"byteLength":341532,
			"byteOffset":23864276,
			"target":34962
		},
		{
			"buffer":0,
			"byteLength":18992,
			"byteOffset":24205808
		},
		{
			"buffer":0,
			"byteLength":113952,
			"byteOffset":24224800
		},
		{
			"buffer":0,
			"byteLength":341532,
			"byteOffset":24338752,
			"target":34962
		},
		{
			"buffer":0,
			"byteLength":33676,
			"byteOffset":24680284
		},
		{
			"buffer":0,
			"byteLength":202056,
			"byteOffset":24713960
		},
		{
			"buffer":0,
			"byteLength":341532,
			"byteOffset":24916016,
			"target":34962
		},
		{
			"buffer":0,
			"byteLength":25882,
			"byteOffset":25257548
		},
		{
			"buffer":0,
			"byteLength":155292,
			"byteOffset":25283432
		},
		{
			"buffer":0,
			"byteLength":341532,
			"byteOffset":25438724,
			"target":34962
		},
		{
			"buffer":0,
			"byteLength":25558,
			"byteOffset":25780256
		},
		{
			"buffer":0,
			"byteLength":153348,
			"byteOffset":25805816
		},
		{
			"buffer":0,
			"byteLength":341532,
			"byteOffset":25959164,
			"target":34962
		},
		{
			"buffer":0,
			"byteLength":23330,
			"byteOffset":26300696
		},
		{
			"buffer":0,
			"byteLength":139980,
			"byteOffset":26324028
		},
		{
			"buffer":0,
			"byteLength":341532,
			"byteOffset":26464008,
			"target":34962
		},
		{
			"buffer":0,
			"byteLength":23756,
			"byteOffset":26805540
		},
		{
			"buffer":0,
			"byteLength":142536,
			"byteOffset":26829296
		},
		{
			"buffer":0,
			"byteLength":341532,
			"byteOffset":26971832,
			"target":34962
		},
		{
			"buffer":0,
			"byteLength":27900,
			"byteOffset":27313364,
			"target":34962
		},
		{
			"buffer":0,
			"byteLength":27900,
			"byteOffset":27341264,
			"target":34962
		},
		{
			"buffer":0,
			"byteLength":18600,
			"byteOffset":27369164,
			"target":34962
		},
		{
			"buffer":0,
			"byteLength":18600,
			"byteOffset":27387764,
			"target":34962
		},
		{
			"buffer":0,
			"byteLength":21960,
			"byteOffset":27406364,
			"target":34963
		},
		{
			"buffer":0,
			"byteLength":2998,
			"byteOffset":27428324
		},
		{
			"buffer":0,
			"byteLength":17988,
			"byteOffset":27431324
		},
		{
			"buffer":0,
			"byteLength":27900,
			"byteOffset":27449312,
			"target":34962
		},
		{
			"buffer":0,
			"byteLength":2998,
			"byteOffset":27477212
		},
		{
			"buffer":0,
			"byteLength":17988,
			"byteOffset":27480212
		},
		{
			"buffer":0,
			"byteLength":27900,
			"byteOffset":27498200,
			"target":34962
		},
		{
			"buffer":0,
			"byteLength":2998,
			"byteOffset":27526100
		},
		{
			"buffer":0,
			"byteLength":17988,
			"byteOffset":27529100
		},
		{
			"buffer":0,
			"byteLength":27900,
			"byteOffset":27547088,
			"target":34962
		},
		{
			"buffer":0,
			"byteLength":2998,
			"byteOffset":27574988
		},
		{
			"buffer":0,
			"byteLength":17988,
			"byteOffset":27577988
		},
		{
			"buffer":0,
			"byteLength":27900,
			"byteOffset":27595976,
			"target":34962
		},
		{
			"buffer":0,
			"byteLength":2998,
			"byteOffset":27623876
		},
		{
			"buffer":0,
			"byteLength":17988,
			"byteOffset":27626876
		},
		{
			"buffer":0,
			"byteLength":27900,
			"byteOffset":27644864,
			"target":34962
		},
		{
			"buffer":0,
			"byteLength":31644,
			"byteOffset":27672764,
			"target":34962
		},
		{
			"buffer":0,
			"byteLength":31644,
			"byteOffset":27704408,
			"target":34962
		},
		{
			"buffer":0,
			"byteLength":21096,
			"byteOffset":27736052,
			"target":34962
		},
		{
			"buffer":0,
			"byteLength":21096,
			"byteOffset":27757148,
			"target":34962
		},
		{
			"buffer":0,
			"byteLength":28140,
			"byteOffset":27778244,
			"target":34963
		},
		{
			"buffer":0,
			"byteLength":2642,
			"byteOffset":27806384
		},
		{
			"buffer":0,
			"byteLength":15852,
			"byteOffset":27809028
		},
		{
			"buffer":0,
			"byteLength":31644,
			"byteOffset":27824880,
			"target":34962
		},
		{
			"buffer":0,
			"byteLength":2642,
			"byteOffset":27856524
		},
		{
			"buffer":0,
			"byteLength":15852,
			"byteOffset":27859168
		},
		{
			"buffer":0,
			"byteLength":31644,
			"byteOffset":27875020,
			"target":34962
		},
		{
			"buffer":0,
			"byteLength":2642,
			"byteOffset":27906664
		},
		{
			"buffer":0,
			"byteLength":15852,
			"byteOffset":27909308
		},
		{
			"buffer":0,
			"byteLength":31644,
			"byteOffset":27925160,
			"target":34962
		},
		{
			"buffer":0,
			"byteLength":2642,
			"byteOffset":27956804
		},
		{
			"buffer":0,
			"byteLength":15852,
			"byteOffset":27959448
		},
		{
			"buffer":0,
			"byteLength":31644,
			"byteOffset":27975300,
			"target":34962
		},
		{
			"buffer":0,
			"byteLength":2642,
			"byteOffset":28006944
		},
		{
			"buffer":0,
			"byteLength":15852,
			"byteOffset":28009588
		},
		{
			"buffer":0,
			"byteLength":31644,
			"byteOffset":28025440,
			"target":34962
		},
		{
			"buffer":0,
			"byteLength":2044,
			"byteOffset":28057084
		},
		{
			"buffer":0,
			"byteLength":8176,
			"byteOffset":28059128
		},
		{
			"buffer":0,
			"byteLength":8176,
			"byteOffset":28067304
		},
		{
			"buffer":0,
			"byteLength":104244,
			"byteOffset":28075480
		},
		{
			"buffer":0,
			"byteLength":10220,
			"byteOffset":28179724
		}
	],
	"samplers":[
		{
			"magFilter":9729,
			"minFilter":9987
		}
	],
	"buffers":[
		{
			"byteLength":28189944,
			"uri":"face1.bin"
		}
	]
}
