{
	"asset":{
		"generator":"Khronos glTF Blender I/O v5.2.39",
		"version":"2.0"
	},
	"scene":0,
	"scenes":[
		{
			"name":"Scene",
			"nodes":[
				67
			]
		}
	],
	"nodes":[
		{
			"name":"mixamorig:LeftToe_End",
			"rotation":[
				6.759110249277e-08,
				9.500181619159775e-08,
				-1.0489689117321177e-07,
				1
			],
			"scale":[
				1.0000001192092896,
				1.000000238418579,
				1.0000001192092896
			],
			"translation":[
				6.466289050877094e-07,
				19.064796447753906,
				-4.5115336888557067e-07
			]
		},
		{
			"children":[
				0
			],
			"name":"mixamorig:LeftToeBase",
			"rotation":[
				0.35920026898384094,
				-0.011804597452282906,
				-0.04676796868443489,
				0.932013213634491
			],
			"scale":[
				0.9999999403953552,
				0.9999999403953552,
				0.9999999403953552
			],
			"translation":[
				-1.6391277313232422e-07,
				32.48121643066406,
				1.5210102901619393e-06
			]
		},
		{
			"children":[
				1
			],
			"name":"mixamorig:LeftFoot",
			"rotation":[
				0.4385220408439636,
				-0.019363276660442352,
				0.03490765392780304,
				0.897833526134491
			],
			"scale":[
				1,
				1.0000001192092896,
				0.9999999403953552
			],
			"translation":[
				-1.8093269318342209e-06,
				85.57112121582031,
				2.8681824915111065e-07
			]
		},
		{
			"children":[
				2
			],
			"name":"mixamorig:LeftLeg",
			"rotation":[
				-0.021215291693806648,
				4.035346591990674e-06,
				0.005016781855374575,
				0.9997623562812805
			],
			"scale":[
				0.9999999403953552,
				1,
				1
			],
			"translation":[
				-1.5899786376394331e-07,
				85.24565887451172,
				-8.765528036747128e-08
			]
		},
		{
			"children":[
				3
			],
			"name":"mixamorig:LeftUpLeg",
			"rotation":[
				2.0646428311010823e-05,
				-0.008861607871949673,
				0.9999579191207886,
				0.002383934333920479
			],
			"scale":[
				0.9999999403953552,
				1,
				1
			],
			"translation":[
				18.524396896362305,
				-13.838516235351562,
				2.662015199661255
			]
		},
		{
			"name":"mixamorig:RightToe_End",
			"rotation":[
				-3.1429930658077865e-08,
				1.3525095710065216e-07,
				-1.3858789316145703e-07,
				1
			],
			"scale":[
				1,
				0.9999999403953552,
				0.9999999403953552
			],
			"translation":[
				-8.703209459781647e-07,
				19.70232391357422,
				-3.756747446459485e-07
			]
		},
		{
			"children":[
				5
			],
			"name":"mixamorig:RightToeBase",
			"rotation":[
				0.35226452350616455,
				0.04155370965600014,
				-0.020242778584361076,
				0.9347583651542664
			],
			"scale":[
				1,
				1,
				0.9999999403953552
			],
			"translation":[
				1.7136335372924805e-06,
				32.981178283691406,
				9.356970167573309e-07
			]
		},
		{
			"children":[
				6
			],
			"name":"mixamorig:RightFoot",
			"rotation":[
				0.4422605037689209,
				0.022734804078936577,
				-0.039801906794309616,
				0.8957145810127258
			],
			"scale":[
				0.9999998807907104,
				0.9999998807907104,
				0.9999998807907104
			],
			"translation":[
				2.338085323572159e-06,
				85.41943359375,
				4.4905641516379546e-07
			]
		},
		{
			"children":[
				7
			],
			"name":"mixamorig:RightLeg",
			"rotation":[
				-0.036112040281295776,
				-7.845319487387314e-06,
				-0.006710181478410959,
				0.9993252158164978
			],
			"scale":[
				1,
				0.9999999403953552,
				0.9999997615814209
			],
			"translation":[
				2.2701169655192643e-06,
				84.81970977783203,
				-9.151699487119913e-08
			]
		},
		{
			"children":[
				8
			],
			"name":"mixamorig:RightUpLeg",
			"rotation":[
				-2.0012717868667096e-05,
				-0.005910852458328009,
				-0.9999772906303406,
				0.0032377152238041162
			],
			"scale":[
				0.9999999403953552,
				0.9999998211860657,
				0.9999998807907104
			],
			"translation":[
				-18.440271377563477,
				-14.411666870117188,
				0.16034023463726044
			]
		},
		{
			"name":"mixamorig:LeftHandIndex4",
			"rotation":[
				-7.707373015633165e-16,
				-3.2329852109916042e-15,
				1.597632358134001e-15,
				1
			],
			"translation":[
				-2.9661907319677994e-05,
				6.593372344970703,
				2.9427044864860363e-05
			]
		},
		{
			"children":[
				10
			],
			"name":"mixamorig:LeftHandIndex3",
			"rotation":[
				-1.0884932413962947e-15,
				-3.277257354383778e-09,
				-3.2773412872444396e-09,
				1
			],
			"translation":[
				-2.6463123504072428e-05,
				6.495273590087891,
				-6.209236016729847e-05
			]
		},
		{
			"children":[
				11
			],
			"name":"mixamorig:LeftHandIndex2",
			"rotation":[
				-1.009553158843983e-16,
				1.7699171905860567e-08,
				6.5571814644727056e-09,
				1
			],
			"translation":[
				6.324713467620313e-06,
				7.062839508056641,
				-6.227240373846143e-05
			]
		},
		{
			"children":[
				12
			],
			"name":"mixamorig:LeftHandIndex1",
			"rotation":[
				-6.394802290238429e-16,
				2.2614592865011218e-08,
				3.375660639903799e-08,
				1
			],
			"translation":[
				-5.152037143707275,
				28.490222930908203,
				0.454740971326828
			]
		},
		{
			"name":"mixamorig:LeftHandMiddle4",
			"rotation":[
				-6.112113514421778e-16,
				4.222013279215958e-15,
				2.364262756925084e-13,
				1
			],
			"translation":[
				4.057969636050984e-05,
				7.39268684387207,
				-3.319324605399743e-05
			]
		},
		{
			"children":[
				14
			],
			"name":"mixamorig:LeftHandMiddle3",
			"rotation":[
				-2.2361705305229407e-06,
				-1.613783595644236e-08,
				-1.6137544633920697e-08,
				1
			],
			"translation":[
				3.534708230290562e-05,
				6.823611259460449,
				-1.9168890503351577e-05
			]
		},
		{
			"children":[
				15
			],
			"name":"mixamorig:LeftHandMiddle2",
			"rotation":[
				2.236170757896616e-06,
				3.265996362245005e-09,
				3.2655504966783155e-09,
				1
			],
			"translation":[
				7.334092515520751e-07,
				6.931581020355225,
				-2.412066351098474e-06
			]
		},
		{
			"children":[
				16
			],
			"name":"mixamorig:LeftHandMiddle1",
			"rotation":[
				-2.816393019950021e-16,
				2.6449875178968796e-08,
				2.6450047485582218e-08,
				1
			],
			"translation":[
				-1.9582104869186878e-05,
				27.74455451965332,
				2.7563926778384484e-05
			]
		},
		{
			"name":"mixamorig:LeftHandPinky4",
			"rotation":[
				2.824969228540971e-16,
				-1.3045196433497663e-13,
				-1.6825393346370926e-13,
				1
			],
			"translation":[
				2.1818559616804123e-05,
				5.563536167144775,
				-5.8107134464080445e-06
			]
		},
		{
			"children":[
				18
			],
			"name":"mixamorig:LeftHandPinky3",
			"rotation":[
				-3.6776455090148374e-06,
				-9.778532330528833e-07,
				-9.778519824976684e-07,
				1
			],
			"translation":[
				-2.8314883820712566e-05,
				4.149049758911133,
				-3.466343696345575e-05
			]
		},
		{
			"children":[
				19
			],
			"name":"mixamorig:LeftHandPinky2",
			"rotation":[
				3.677645736388513e-06,
				1.003373540697794e-06,
				1.0422895684314426e-06,
				1
			],
			"translation":[
				-2.695487637538463e-07,
				6.536698341369629,
				-6.781418051104993e-06
			]
		},
		{
			"children":[
				20
			],
			"name":"mixamorig:LeftHandPinky1",
			"rotation":[
				-2.7134844460892545e-15,
				-3.4030062323608945e-08,
				-7.294753601172488e-08,
				1
			],
			"translation":[
				8.780951499938965,
				21.905805587768555,
				0.44100403785705566
			]
		},
		{
			"name":"mixamorig:LeftHandRing4",
			"rotation":[
				4.786348726214251e-13,
				7.452897534676595e-07,
				7.452896397808217e-07,
				1
			],
			"translation":[
				-3.7606616388075054e-05,
				7.037817001342773,
				3.595216549001634e-05
			]
		},
		{
			"children":[
				22
			],
			"name":"mixamorig:LeftHandRing3",
			"rotation":[
				-6.172530477195626e-13,
				-7.669677870580927e-07,
				-7.669677870580927e-07,
				1
			],
			"translation":[
				1.188345777336508e-07,
				6.359541893005371,
				-2.873699941119412e-06
			]
		},
		{
			"children":[
				23
			],
			"name":"mixamorig:LeftHandRing2",
			"rotation":[
				-2.0625082859052762e-16,
				-1.7733331469926839e-09,
				7.228388554381127e-09,
				1
			],
			"translation":[
				-3.095858482993208e-05,
				6.309798240661621,
				5.821280865347944e-05
			]
		},
		{
			"children":[
				24
			],
			"name":"mixamorig:LeftHandRing1",
			"rotation":[
				-1.8024683240652588e-15,
				4.678694764947977e-08,
				3.778534818366097e-08,
				1
			],
			"translation":[
				4.2410407066345215,
				25.484115600585938,
				-0.07928884774446487
			]
		},
		{
			"name":"mixamorig:LeftHandThumb4",
			"rotation":[
				-4.5399410453228484e-08,
				1.0291618934843427e-07,
				4.4703490686970326e-08,
				1
			],
			"scale":[
				0.9999999403953552,
				0.9999999403953552,
				0.9999999403953552
			],
			"translation":[
				2.2530555725097656e-05,
				5.794498443603516,
				6.255477637751028e-05
			]
		},
		{
			"children":[
				26
			],
			"name":"mixamorig:LeftHandThumb3",
			"rotation":[
				-5.283794735078118e-07,
				-1.924909440731426e-07,
				2.220446049250313e-16,
				1
			],
			"scale":[
				1,
				0.9999999403953552,
				1.0000001192092896
			],
			"translation":[
				-7.62939453125e-06,
				8.955558776855469,
				2.4855333322193474e-05
			]
		},
		{
			"children":[
				27
			],
			"name":"mixamorig:LeftHandThumb2",
			"rotation":[
				-6.354017045850924e-08,
				-4.511797726536315e-07,
				-2.6635825634002686e-07,
				1
			],
			"scale":[
				0.9999999403953552,
				1,
				1
			],
			"translation":[
				-3.337860107421875e-06,
				11.224315643310547,
				-8.060059371928219e-06
			]
		},
		{
			"children":[
				28
			],
			"name":"mixamorig:LeftHandThumb1",
			"rotation":[
				0.2518949508666992,
				-0.05946428328752518,
				0.2219250649213791,
				0.940086305141449
			],
			"translation":[
				-6.128811359405518,
				11.12309741973877,
				3.2915332317352295
			]
		},
		{
			"children":[
				13,
				17,
				21,
				25,
				29
			],
			"name":"mixamorig:LeftHand",
			"rotation":[
				-2.8913814276165795e-07,
				-3.6928419433479576e-08,
				-3.692840522262486e-08,
				1
			],
			"translation":[
				-4.08650521421805e-07,
				52.77339553833008,
				3.515544449328445e-05
			]
		},
		{
			"children":[
				30
			],
			"name":"mixamorig:LeftForeArm",
			"rotation":[
				1.2535242177591499e-08,
				9.405166423448463e-09,
				1.7992874745687004e-08,
				1
			],
			"translation":[
				5.065818186267279e-05,
				55.1276969909668,
				-2.3722517653368413e-05
			]
		},
		{
			"children":[
				31
			],
			"name":"mixamorig:LeftArm",
			"rotation":[
				0.014690550044178963,
				0.0011266643414273858,
				0.07647065818309784,
				0.9969630241394043
			],
			"scale":[
				0.9999998807907104,
				0.9999998211860657,
				0.9999999403953552
			],
			"translation":[
				-9.5367431640625e-07,
				26.583288192749023,
				2.112087167915888e-05
			]
		},
		{
			"children":[
				32
			],
			"name":"mixamorig:LeftShoulder",
			"rotation":[
				0.41801315546035767,
				0.5150068402290344,
				-0.5576156973838806,
				0.49909698963165283
			],
			"scale":[
				0.9999997615814209,
				0.9999997019767761,
				0.9999998807907104
			],
			"translation":[
				12.603373527526855,
				19.313793182373047,
				0.3591652512550354
			]
		},
		{
			"name":"mixamorig:HeadTop_End",
			"rotation":[
				8.731149137020111e-11,
				-7.324648110262899e-10,
				7.596808515586417e-09,
				1
			],
			"scale":[
				0.9999999403953552,
				1,
				1
			],
			"translation":[
				-1.6398036479949951,
				39.77739334106445,
				-0.3610921800136566
			]
		},
		{
			"name":"mixamorig:LeftEye",
			"rotation":[
				-2.971501444903879e-08,
				-1.2370123814164913e-09,
				9.607119544341458e-09,
				1
			],
			"scale":[
				0.9999999403953552,
				0.9999998211860657,
				1
			],
			"translation":[
				5.295353889465332,
				21.026020050048828,
				11.309812545776367
			]
		},
		{
			"name":"mixamorig:RightEye",
			"rotation":[
				4.3655745685100555e-11,
				-1.641072278069089e-10,
				1.7743897462452196e-09,
				1
			],
			"scale":[
				0.9999999403953552,
				1,
				1
			],
			"translation":[
				-6.881475925445557,
				20.142927169799805,
				11.252135276794434
			]
		},
		{
			"children":[
				34,
				35,
				36
			],
			"name":"mixamorig:Head",
			"rotation":[
				1.4915713109076023e-08,
				-1.1882794748174774e-09,
				-2.8550493080814476e-09,
				1
			],
			"scale":[
				0.9999999403953552,
				0.9999999403953552,
				1
			],
			"translation":[
				1.496543063694844e-06,
				23.18894386291504,
				-1.8372200429439545e-05
			]
		},
		{
			"children":[
				37
			],
			"name":"mixamorig:Neck",
			"rotation":[
				0.08201040327548981,
				-0.002855743048712611,
				-0.01390164252370596,
				0.9965304732322693
			],
			"scale":[
				0.9999998807907104,
				0.9999999403953552,
				0.9999997019767761
			],
			"translation":[
				1.086740894606919e-06,
				31.294170379638672,
				1.0254007065668702e-06
			]
		},
		{
			"name":"mixamorig:RightHandIndex4",
			"rotation":[
				-2.7251594320735055e-17,
				7.237404725782997e-16,
				2.8330802466372887e-14,
				1
			],
			"scale":[
				0.9999999403953552,
				0.9999999403953552,
				0.9999999403953552
			],
			"translation":[
				3.741363616427407e-05,
				5.522515296936035,
				2.983454760396853e-05
			]
		},
		{
			"children":[
				39
			],
			"name":"mixamorig:RightHandIndex3",
			"rotation":[
				1.776567069007292e-17,
				-2.6761042271061797e-09,
				-2.675975441235323e-09,
				1
			],
			"scale":[
				0.9999999403953552,
				0.9999999403953552,
				0.9999999403953552
			],
			"translation":[
				1.283638266613707e-05,
				7.414422035217285,
				2.9797090974170715e-05
			]
		},
		{
			"children":[
				40
			],
			"name":"mixamorig:RightHandIndex2",
			"rotation":[
				-1.8688937595196843e-16,
				1.7535683127789525e-08,
				1.777557834259369e-08,
				1
			],
			"scale":[
				0.9999999403953552,
				0.9999998807907104,
				0.9999999403953552
			],
			"translation":[
				-2.025553840212524e-05,
				7.09212589263916,
				3.0042501748539507e-05
			]
		},
		{
			"children":[
				41
			],
			"name":"mixamorig:RightHandIndex1",
			"rotation":[
				1.43897149996725e-17,
				2.3996438169859857e-10,
				-6.323187639781548e-17,
				1
			],
			"scale":[
				0.9999999403953552,
				1,
				0.9999999403953552
			],
			"translation":[
				5.106606960296631,
				26.603050231933594,
				0.5463557243347168
			]
		},
		{
			"name":"mixamorig:RightHandMiddle4",
			"rotation":[
				-9.28856412677127e-18,
				-2.8383451493275372e-15,
				2.8321430893844465e-14,
				1
			],
			"scale":[
				0.9999999403953552,
				0.9999999403953552,
				0.9999999403953552
			],
			"translation":[
				-5.2252464229241014e-05,
				7.4599809646606445,
				-1.3033023833486368e-06
			]
		},
		{
			"children":[
				43
			],
			"name":"mixamorig:RightHandMiddle3",
			"rotation":[
				-2.114291909833464e-16,
				9.528410060966053e-09,
				9.528549504977946e-09,
				1
			],
			"scale":[
				0.9999999403953552,
				0.9999998807907104,
				0.9999999403953552
			],
			"translation":[
				3.5776109143625945e-05,
				7.279118061065674,
				2.9444945539580658e-05
			]
		},
		{
			"children":[
				44
			],
			"name":"mixamorig:RightHandMiddle2",
			"rotation":[
				1.9394725151518528e-16,
				-6.000673735684359e-09,
				-6.000903329805851e-09,
				1
			],
			"scale":[
				0.9999999403953552,
				1,
				0.9999999403953552
			],
			"translation":[
				3.960441972594708e-05,
				6.159977436065674,
				2.929967740783468e-05
			]
		},
		{
			"children":[
				45
			],
			"name":"mixamorig:RightHandMiddle1",
			"rotation":[
				-3.2392374258730843e-16,
				1.660310999795911e-08,
				1.6603209473942115e-08,
				1
			],
			"scale":[
				0.9999999403953552,
				1,
				0.9999999403953552
			],
			"translation":[
				-2.4698072593309917e-05,
				26.065555572509766,
				-3.133355130557902e-05
			]
		},
		{
			"name":"mixamorig:RightHandPinky4",
			"rotation":[
				4.790475486515788e-06,
				8.982197527984681e-07,
				8.982193548945361e-07,
				1
			],
			"scale":[
				0.9999999403953552,
				1,
				0.9999999403953552
			],
			"translation":[
				1.7018592188833281e-06,
				6.3704633712768555,
				4.853185942010896e-07
			]
		},
		{
			"children":[
				47
			],
			"name":"mixamorig:RightHandPinky3",
			"rotation":[
				8.984314147134596e-15,
				5.753486931325824e-08,
				5.753483733883513e-08,
				1
			],
			"scale":[
				0.9999999403953552,
				1,
				0.9999999403953552
			],
			"translation":[
				-2.2540054487762973e-05,
				3.7646870613098145,
				2.8609626951947575e-06
			]
		},
		{
			"children":[
				48
			],
			"name":"mixamorig:RightHandPinky2",
			"rotation":[
				-4.652375896639291e-15,
				-1.855177060861024e-07,
				-1.8327658324324148e-07,
				1
			],
			"scale":[
				0.9999999403953552,
				1,
				0.9999999403953552
			],
			"translation":[
				4.504631942836568e-05,
				5.939606189727783,
				-4.799137059308123e-06
			]
		},
		{
			"children":[
				49
			],
			"name":"mixamorig:RightHandPinky1",
			"rotation":[
				-6.644495321111261e-15,
				8.252251859630633e-08,
				8.028133891002653e-08,
				1
			],
			"scale":[
				0.9999999403953552,
				1,
				0.9999999403953552
			],
			"translation":[
				-8.541117668151855,
				20.98934555053711,
				0.4977402985095978
			]
		},
		{
			"name":"mixamorig:RightHandRing4",
			"rotation":[
				-2.5358640414196998e-06,
				-9.509441269983654e-07,
				-9.509444680588786e-07,
				1
			],
			"scale":[
				0.9999999403953552,
				0.9999999403953552,
				0.9999999403953552
			],
			"translation":[
				1.0044386726804078e-06,
				6.017154693603516,
				-3.872918114211643e-06
			]
		},
		{
			"children":[
				51
			],
			"name":"mixamorig:RightHandRing3",
			"rotation":[
				2.2322872155200457e-06,
				1.0156836083297094e-07,
				1.0156877294775768e-07,
				1
			],
			"scale":[
				0.9999999403953552,
				0.9999999403953552,
				0.9999999403953552
			],
			"translation":[
				2.2957374312682077e-05,
				6.83549165725708,
				2.5301897039753385e-05
			]
		},
		{
			"children":[
				52
			],
			"name":"mixamorig:RightHandRing2",
			"rotation":[
				-2.232287442893721e-06,
				-1.342100652834688e-09,
				2.478025118435312e-09,
				1
			],
			"scale":[
				0.9999999403953552,
				0.9999999403953552,
				0.9999999403953552
			],
			"translation":[
				1.9059489204664715e-06,
				6.857483386993408,
				-6.481121204160445e-07
			]
		},
		{
			"children":[
				53
			],
			"name":"mixamorig:RightHandRing1",
			"rotation":[
				-2.632755482891901e-16,
				-1.3563864698085126e-08,
				-1.7383813499805e-08,
				1
			],
			"scale":[
				0.9999999403953552,
				0.9999998807907104,
				0.9999999403953552
			],
			"translation":[
				-3.9839718341827393,
				24.087234497070312,
				-0.0014048931188881397
			]
		},
		{
			"name":"mixamorig:RightHandThumb4",
			"rotation":[
				2.1399350771389436e-06,
				5.443821464723442e-07,
				9.052455425262451e-07,
				1
			],
			"translation":[
				-1.3113021850585938e-06,
				6.138882160186768,
				2.377672899456229e-05
			]
		},
		{
			"children":[
				55
			],
			"name":"mixamorig:RightHandThumb3",
			"rotation":[
				-1.4148292848403798e-06,
				4.1193899846803106e-07,
				-1.5832485189548606e-07,
				1
			],
			"scale":[
				0.9999998807907104,
				0.9999999403953552,
				0.9999999403953552
			],
			"translation":[
				-2.199411392211914e-05,
				8.574711799621582,
				-8.483870624331757e-05
			]
		},
		{
			"children":[
				56
			],
			"name":"mixamorig:RightHandThumb2",
			"rotation":[
				-4.061990743764454e-10,
				-1.2584672504090122e-07,
				-1.1362136120851574e-07,
				1
			],
			"scale":[
				1,
				0.9999999403953552,
				1
			],
			"translation":[
				8.106231689453125e-06,
				10.349105834960938,
				1.4391321201401297e-07
			]
		},
		{
			"children":[
				57
			],
			"name":"mixamorig:RightHandThumb1",
			"rotation":[
				0.25189733505249023,
				0.05946560204029083,
				-0.22192621231079102,
				0.9400852918624878
			],
			"scale":[
				0.9999999403953552,
				0.9999999403953552,
				0.9999999403953552
			],
			"translation":[
				6.1570515632629395,
				9.501977920532227,
				3.930022716522217
			]
		},
		{
			"children":[
				42,
				46,
				50,
				54,
				58
			],
			"name":"mixamorig:RightHand",
			"rotation":[
				5.097032406805777e-16,
				-5.602091235346052e-09,
				-5.602089903078422e-09,
				1
			],
			"scale":[
				0.9999999403953552,
				1,
				0.9999999403953552
			],
			"translation":[
				-4.348460061009973e-05,
				50.31370162963867,
				-9.51589527176111e-07
			]
		},
		{
			"children":[
				59
			],
			"name":"mixamorig:RightForeArm",
			"rotation":[
				1.8626462594539817e-09,
				3.7627202686962846e-08,
				3.5978416690340964e-08,
				1
			],
			"scale":[
				0.9999999403953552,
				1,
				0.9999999403953552
			],
			"translation":[
				-9.104316268349066e-05,
				55.84268569946289,
				3.148059590785124e-07
			]
		},
		{
			"children":[
				60
			],
			"name":"mixamorig:RightArm",
			"rotation":[
				0.008705217391252518,
				-0.0008870015735737979,
				-0.101348377764225,
				0.994812548160553
			],
			"scale":[
				0.9999998211860657,
				0.9999999403953552,
				0.9999996423721313
			],
			"translation":[
				-7.152557373046875e-07,
				26.89194107055664,
				5.1988659834023565e-05
			]
		},
		{
			"children":[
				61
			],
			"name":"mixamorig:RightShoulder",
			"rotation":[
				0.41931357979774475,
				-0.5138814449310303,
				0.5803066492080688,
				0.4725952744483948
			],
			"scale":[
				0.9999998211860657,
				0.9999998807907104,
				0.9999999403953552
			],
			"translation":[
				-12.98957347869873,
				19.103471755981445,
				-0.116241455078125
			]
		},
		{
			"children":[
				33,
				38,
				62
			],
			"name":"mixamorig:Spine2",
			"rotation":[
				0.08163168281316757,
				-0.00043349983752705157,
				-0.011176382191479206,
				0.9965998530387878
			],
			"translation":[
				-1.5027094946162833e-07,
				27.833505630493164,
				-1.278305717278272e-06
			]
		},
		{
			"children":[
				63
			],
			"name":"mixamorig:Spine1",
			"rotation":[
				0.0285630002617836,
				0.00027098035207018256,
				-0.003782035317271948,
				0.9995848536491394
			],
			"scale":[
				0.9999999403953552,
				0.9999998807907104,
				0.9999999403953552
			],
			"translation":[
				7.081555786214722e-09,
				23.620071411132812,
				-2.3618340492248535e-06
			]
		},
		{
			"children":[
				64
			],
			"name":"mixamorig:Spine",
			"rotation":[
				-0.05002542957663536,
				-0.0002878409286495298,
				0.005746595561504364,
				0.9987313151359558
			],
			"translation":[
				-0.1948024034500122,
				19.8048095703125,
				-3.889749765396118
			]
		},
		{
			"children":[
				4,
				9,
				65
			],
			"name":"mixamorig:Hips",
			"rotation":[
				-0.7071067690849304,
				0,
				0,
				0.7071067690849304
			],
			"translation":[
				-0.04192013666033745,
				-1.416406273841858,
				-209.15078735351562
			]
		},
		{
			"children":[
				66
			],
			"name":"Armature",
			"rotation":[
				0.7071068286895752,
				0,
				0,
				0.7071068286895752
			],
			"scale":[
				0.009999999776482582,
				0.009999999776482582,
				0.009999999776482582
			]
		}
	],
	"animations":[
		{
			"channels":[
				{
					"sampler":0,
					"target":{
						"node":66,
						"path":"translation"
					}
				},
				{
					"sampler":1,
					"target":{
						"node":66,
						"path":"rotation"
					}
				},
				{
					"sampler":2,
					"target":{
						"node":66,
						"path":"scale"
					}
				},
				{
					"sampler":3,
					"target":{
						"node":4,
						"path":"translation"
					}
				},
				{
					"sampler":4,
					"target":{
						"node":4,
						"path":"rotation"
					}
				},
				{
					"sampler":5,
					"target":{
						"node":4,
						"path":"scale"
					}
				},
				{
					"sampler":6,
					"target":{
						"node":3,
						"path":"translation"
					}
				},
				{
					"sampler":7,
					"target":{
						"node":3,
						"path":"rotation"
					}
				},
				{
					"sampler":8,
					"target":{
						"node":3,
						"path":"scale"
					}
				},
				{
					"sampler":9,
					"target":{
						"node":2,
						"path":"translation"
					}
				},
				{
					"sampler":10,
					"target":{
						"node":2,
						"path":"rotation"
					}
				},
				{
					"sampler":11,
					"target":{
						"node":2,
						"path":"scale"
					}
				},
				{
					"sampler":12,
					"target":{
						"node":1,
						"path":"translation"
					}
				},
				{
					"sampler":13,
					"target":{
						"node":1,
						"path":"rotation"
					}
				},
				{
					"sampler":14,
					"target":{
						"node":1,
						"path":"scale"
					}
				},
				{
					"sampler":15,
					"target":{
						"node":0,
						"path":"translation"
					}
				},
				{
					"sampler":16,
					"target":{
						"node":0,
						"path":"rotation"
					}
				},
				{
					"sampler":17,
					"target":{
						"node":0,
						"path":"scale"
					}
				},
				{
					"sampler":18,
					"target":{
						"node":9,
						"path":"translation"
					}
				},
				{
					"sampler":19,
					"target":{
						"node":9,
						"path":"rotation"
					}
				},
				{
					"sampler":20,
					"target":{
						"node":9,
						"path":"scale"
					}
				},
				{
					"sampler":21,
					"target":{
						"node":8,
						"path":"translation"
					}
				},
				{
					"sampler":22,
					"target":{
						"node":8,
						"path":"rotation"
					}
				},
				{
					"sampler":23,
					"target":{
						"node":8,
						"path":"scale"
					}
				},
				{
					"sampler":24,
					"target":{
						"node":7,
						"path":"translation"
					}
				},
				{
					"sampler":25,
					"target":{
						"node":7,
						"path":"rotation"
					}
				},
				{
					"sampler":26,
					"target":{
						"node":7,
						"path":"scale"
					}
				},
				{
					"sampler":27,
					"target":{
						"node":6,
						"path":"translation"
					}
				},
				{
					"sampler":28,
					"target":{
						"node":6,
						"path":"rotation"
					}
				},
				{
					"sampler":29,
					"target":{
						"node":6,
						"path":"scale"
					}
				},
				{
					"sampler":30,
					"target":{
						"node":5,
						"path":"translation"
					}
				},
				{
					"sampler":31,
					"target":{
						"node":5,
						"path":"rotation"
					}
				},
				{
					"sampler":32,
					"target":{
						"node":5,
						"path":"scale"
					}
				},
				{
					"sampler":33,
					"target":{
						"node":65,
						"path":"translation"
					}
				},
				{
					"sampler":34,
					"target":{
						"node":65,
						"path":"rotation"
					}
				},
				{
					"sampler":35,
					"target":{
						"node":65,
						"path":"scale"
					}
				},
				{
					"sampler":36,
					"target":{
						"node":64,
						"path":"translation"
					}
				},
				{
					"sampler":37,
					"target":{
						"node":64,
						"path":"rotation"
					}
				},
				{
					"sampler":38,
					"target":{
						"node":64,
						"path":"scale"
					}
				},
				{
					"sampler":39,
					"target":{
						"node":63,
						"path":"translation"
					}
				},
				{
					"sampler":40,
					"target":{
						"node":63,
						"path":"rotation"
					}
				},
				{
					"sampler":41,
					"target":{
						"node":63,
						"path":"scale"
					}
				},
				{
					"sampler":42,
					"target":{
						"node":33,
						"path":"translation"
					}
				},
				{
					"sampler":43,
					"target":{
						"node":33,
						"path":"rotation"
					}
				},
				{
					"sampler":44,
					"target":{
						"node":33,
						"path":"scale"
					}
				},
				{
					"sampler":45,
					"target":{
						"node":32,
						"path":"translation"
					}
				},
				{
					"sampler":46,
					"target":{
						"node":32,
						"path":"rotation"
					}
				},
				{
					"sampler":47,
					"target":{
						"node":32,
						"path":"scale"
					}
				},
				{
					"sampler":48,
					"target":{
						"node":31,
						"path":"translation"
					}
				},
				{
					"sampler":49,
					"target":{
						"node":31,
						"path":"rotation"
					}
				},
				{
					"sampler":50,
					"target":{
						"node":31,
						"path":"scale"
					}
				},
				{
					"sampler":51,
					"target":{
						"node":30,
						"path":"translation"
					}
				},
				{
					"sampler":52,
					"target":{
						"node":30,
						"path":"rotation"
					}
				},
				{
					"sampler":53,
					"target":{
						"node":30,
						"path":"scale"
					}
				},
				{
					"sampler":54,
					"target":{
						"node":13,
						"path":"translation"
					}
				},
				{
					"sampler":55,
					"target":{
						"node":13,
						"path":"rotation"
					}
				},
				{
					"sampler":56,
					"target":{
						"node":13,
						"path":"scale"
					}
				},
				{
					"sampler":57,
					"target":{
						"node":12,
						"path":"translation"
					}
				},
				{
					"sampler":58,
					"target":{
						"node":12,
						"path":"rotation"
					}
				},
				{
					"sampler":59,
					"target":{
						"node":12,
						"path":"scale"
					}
				},
				{
					"sampler":60,
					"target":{
						"node":11,
						"path":"translation"
					}
				},
				{
					"sampler":61,
					"target":{
						"node":11,
						"path":"rotation"
					}
				},
				{
					"sampler":62,
					"target":{
						"node":11,
						"path":"scale"
					}
				},
				{
					"sampler":63,
					"target":{
						"node":10,
						"path":"translation"
					}
				},
				{
					"sampler":64,
					"target":{
						"node":10,
						"path":"rotation"
					}
				},
				{
					"sampler":65,
					"target":{
						"node":10,
						"path":"scale"
					}
				},
				{
					"sampler":66,
					"target":{
						"node":17,
						"path":"translation"
					}
				},
				{
					"sampler":67,
					"target":{
						"node":17,
						"path":"rotation"
					}
				},
				{
					"sampler":68,
					"target":{
						"node":17,
						"path":"scale"
					}
				},
				{
					"sampler":69,
					"target":{
						"node":16,
						"path":"translation"
					}
				},
				{
					"sampler":70,
					"target":{
						"node":16,
						"path":"rotation"
					}
				},
				{
					"sampler":71,
					"target":{
						"node":16,
						"path":"scale"
					}
				},
				{
					"sampler":72,
					"target":{
						"node":15,
						"path":"translation"
					}
				},
				{
					"sampler":73,
					"target":{
						"node":15,
						"path":"rotation"
					}
				},
				{
					"sampler":74,
					"target":{
						"node":15,
						"path":"scale"
					}
				},
				{
					"sampler":75,
					"target":{
						"node":14,
						"path":"translation"
					}
				},
				{
					"sampler":76,
					"target":{
						"node":14,
						"path":"rotation"
					}
				},
				{
					"sampler":77,
					"target":{
						"node":14,
						"path":"scale"
					}
				},
				{
					"sampler":78,
					"target":{
						"node":21,
						"path":"translation"
					}
				},
				{
					"sampler":79,
					"target":{
						"node":21,
						"path":"rotation"
					}
				},
				{
					"sampler":80,
					"target":{
						"node":21,
						"path":"scale"
					}
				},
				{
					"sampler":81,
					"target":{
						"node":20,
						"path":"translation"
					}
				},
				{
					"sampler":82,
					"target":{
						"node":20,
						"path":"rotation"
					}
				},
				{
					"sampler":83,
					"target":{
						"node":20,
						"path":"scale"
					}
				},
				{
					"sampler":84,
					"target":{
						"node":19,
						"path":"translation"
					}
				},
				{
					"sampler":85,
					"target":{
						"node":19,
						"path":"rotation"
					}
				},
				{
					"sampler":86,
					"target":{
						"node":19,
						"path":"scale"
					}
				},
				{
					"sampler":87,
					"target":{
						"node":18,
						"path":"translation"
					}
				},
				{
					"sampler":88,
					"target":{
						"node":18,
						"path":"rotation"
					}
				},
				{
					"sampler":89,
					"target":{
						"node":18,
						"path":"scale"
					}
				},
				{
					"sampler":90,
					"target":{
						"node":25,
						"path":"translation"
					}
				},
				{
					"sampler":91,
					"target":{
						"node":25,
						"path":"rotation"
					}
				},
				{
					"sampler":92,
					"target":{
						"node":25,
						"path":"scale"
					}
				},
				{
					"sampler":93,
					"target":{
						"node":24,
						"path":"translation"
					}
				},
				{
					"sampler":94,
					"target":{
						"node":24,
						"path":"rotation"
					}
				},
				{
					"sampler":95,
					"target":{
						"node":24,
						"path":"scale"
					}
				},
				{
					"sampler":96,
					"target":{
						"node":23,
						"path":"translation"
					}
				},
				{
					"sampler":97,
					"target":{
						"node":23,
						"path":"rotation"
					}
				},
				{
					"sampler":98,
					"target":{
						"node":23,
						"path":"scale"
					}
				},
				{
					"sampler":99,
					"target":{
						"node":22,
						"path":"translation"
					}
				},
				{
					"sampler":100,
					"target":{
						"node":22,
						"path":"rotation"
					}
				},
				{
					"sampler":101,
					"target":{
						"node":22,
						"path":"scale"
					}
				},
				{
					"sampler":102,
					"target":{
						"node":29,
						"path":"translation"
					}
				},
				{
					"sampler":103,
					"target":{
						"node":29,
						"path":"rotation"
					}
				},
				{
					"sampler":104,
					"target":{
						"node":29,
						"path":"scale"
					}
				},
				{
					"sampler":105,
					"target":{
						"node":28,
						"path":"translation"
					}
				},
				{
					"sampler":106,
					"target":{
						"node":28,
						"path":"rotation"
					}
				},
				{
					"sampler":107,
					"target":{
						"node":28,
						"path":"scale"
					}
				},
				{
					"sampler":108,
					"target":{
						"node":27,
						"path":"translation"
					}
				},
				{
					"sampler":109,
					"target":{
						"node":27,
						"path":"rotation"
					}
				},
				{
					"sampler":110,
					"target":{
						"node":27,
						"path":"scale"
					}
				},
				{
					"sampler":111,
					"target":{
						"node":26,
						"path":"translation"
					}
				},
				{
					"sampler":112,
					"target":{
						"node":26,
						"path":"rotation"
					}
				},
				{
					"sampler":113,
					"target":{
						"node":26,
						"path":"scale"
					}
				},
				{
					"sampler":114,
					"target":{
						"node":38,
						"path":"translation"
					}
				},
				{
					"sampler":115,
					"target":{
						"node":38,
						"path":"rotation"
					}
				},
				{
					"sampler":116,
					"target":{
						"node":38,
						"path":"scale"
					}
				},
				{
					"sampler":117,
					"target":{
						"node":37,
						"path":"translation"
					}
				},
				{
					"sampler":118,
					"target":{
						"node":37,
						"path":"rotation"
					}
				},
				{
					"sampler":119,
					"target":{
						"node":37,
						"path":"scale"
					}
				},
				{
					"sampler":120,
					"target":{
						"node":34,
						"path":"translation"
					}
				},
				{
					"sampler":121,
					"target":{
						"node":34,
						"path":"rotation"
					}
				},
				{
					"sampler":122,
					"target":{
						"node":34,
						"path":"scale"
					}
				},
				{
					"sampler":123,
					"target":{
						"node":35,
						"path":"translation"
					}
				},
				{
					"sampler":124,
					"target":{
						"node":35,
						"path":"rotation"
					}
				},
				{
					"sampler":125,
					"target":{
						"node":35,
						"path":"scale"
					}
				},
				{
					"sampler":126,
					"target":{
						"node":36,
						"path":"translation"
					}
				},
				{
					"sampler":127,
					"target":{
						"node":36,
						"path":"rotation"
					}
				},
				{
					"sampler":128,
					"target":{
						"node":36,
						"path":"scale"
					}
				},
				{
					"sampler":129,
					"target":{
						"node":62,
						"path":"translation"
					}
				},
				{
					"sampler":130,
					"target":{
						"node":62,
						"path":"rotation"
					}
				},
				{
					"sampler":131,
					"target":{
						"node":62,
						"path":"scale"
					}
				},
				{
					"sampler":132,
					"target":{
						"node":61,
						"path":"translation"
					}
				},
				{
					"sampler":133,
					"target":{
						"node":61,
						"path":"rotation"
					}
				},
				{
					"sampler":134,
					"target":{
						"node":61,
						"path":"scale"
					}
				},
				{
					"sampler":135,
					"target":{
						"node":60,
						"path":"translation"
					}
				},
				{
					"sampler":136,
					"target":{
						"node":60,
						"path":"rotation"
					}
				},
				{
					"sampler":137,
					"target":{
						"node":60,
						"path":"scale"
					}
				},
				{
					"sampler":138,
					"target":{
						"node":59,
						"path":"translation"
					}
				},
				{
					"sampler":139,
					"target":{
						"node":59,
						"path":"rotation"
					}
				},
				{
					"sampler":140,
					"target":{
						"node":59,
						"path":"scale"
					}
				},
				{
					"sampler":141,
					"target":{
						"node":42,
						"path":"translation"
					}
				},
				{
					"sampler":142,
					"target":{
						"node":42,
						"path":"rotation"
					}
				},
				{
					"sampler":143,
					"target":{
						"node":42,
						"path":"scale"
					}
				},
				{
					"sampler":144,
					"target":{
						"node":41,
						"path":"translation"
					}
				},
				{
					"sampler":145,
					"target":{
						"node":41,
						"path":"rotation"
					}
				},
				{
					"sampler":146,
					"target":{
						"node":41,
						"path":"scale"
					}
				},
				{
					"sampler":147,
					"target":{
						"node":40,
						"path":"translation"
					}
				},
				{
					"sampler":148,
					"target":{
						"node":40,
						"path":"rotation"
					}
				},
				{
					"sampler":149,
					"target":{
						"node":40,
						"path":"scale"
					}
				},
				{
					"sampler":150,
					"target":{
						"node":39,
						"path":"translation"
					}
				},
				{
					"sampler":151,
					"target":{
						"node":39,
						"path":"rotation"
					}
				},
				{
					"sampler":152,
					"target":{
						"node":39,
						"path":"scale"
					}
				},
				{
					"sampler":153,
					"target":{
						"node":46,
						"path":"translation"
					}
				},
				{
					"sampler":154,
					"target":{
						"node":46,
						"path":"rotation"
					}
				},
				{
					"sampler":155,
					"target":{
						"node":46,
						"path":"scale"
					}
				},
				{
					"sampler":156,
					"target":{
						"node":45,
						"path":"translation"
					}
				},
				{
					"sampler":157,
					"target":{
						"node":45,
						"path":"rotation"
					}
				},
				{
					"sampler":158,
					"target":{
						"node":45,
						"path":"scale"
					}
				},
				{
					"sampler":159,
					"target":{
						"node":44,
						"path":"translation"
					}
				},
				{
					"sampler":160,
					"target":{
						"node":44,
						"path":"rotation"
					}
				},
				{
					"sampler":161,
					"target":{
						"node":44,
						"path":"scale"
					}
				},
				{
					"sampler":162,
					"target":{
						"node":43,
						"path":"translation"
					}
				},
				{
					"sampler":163,
					"target":{
						"node":43,
						"path":"rotation"
					}
				},
				{
					"sampler":164,
					"target":{
						"node":43,
						"path":"scale"
					}
				},
				{
					"sampler":165,
					"target":{
						"node":50,
						"path":"translation"
					}
				},
				{
					"sampler":166,
					"target":{
						"node":50,
						"path":"rotation"
					}
				},
				{
					"sampler":167,
					"target":{
						"node":50,
						"path":"scale"
					}
				},
				{
					"sampler":168,
					"target":{
						"node":49,
						"path":"translation"
					}
				},
				{
					"sampler":169,
					"target":{
						"node":49,
						"path":"rotation"
					}
				},
				{
					"sampler":170,
					"target":{
						"node":49,
						"path":"scale"
					}
				},
				{
					"sampler":171,
					"target":{
						"node":48,
						"path":"translation"
					}
				},
				{
					"sampler":172,
					"target":{
						"node":48,
						"path":"rotation"
					}
				},
				{
					"sampler":173,
					"target":{
						"node":48,
						"path":"scale"
					}
				},
				{
					"sampler":174,
					"target":{
						"node":47,
						"path":"translation"
					}
				},
				{
					"sampler":175,
					"target":{
						"node":47,
						"path":"rotation"
					}
				},
				{
					"sampler":176,
					"target":{
						"node":47,
						"path":"scale"
					}
				},
				{
					"sampler":177,
					"target":{
						"node":54,
						"path":"translation"
					}
				},
				{
					"sampler":178,
					"target":{
						"node":54,
						"path":"rotation"
					}
				},
				{
					"sampler":179,
					"target":{
						"node":54,
						"path":"scale"
					}
				},
				{
					"sampler":180,
					"target":{
						"node":53,
						"path":"translation"
					}
				},
				{
					"sampler":181,
					"target":{
						"node":53,
						"path":"rotation"
					}
				},
				{
					"sampler":182,
					"target":{
						"node":53,
						"path":"scale"
					}
				},
				{
					"sampler":183,
					"target":{
						"node":52,
						"path":"translation"
					}
				},
				{
					"sampler":184,
					"target":{
						"node":52,
						"path":"rotation"
					}
				},
				{
					"sampler":185,
					"target":{
						"node":52,
						"path":"scale"
					}
				},
				{
					"sampler":186,
					"target":{
						"node":51,
						"path":"translation"
					}
				},
				{
					"sampler":187,
					"target":{
						"node":51,
						"path":"rotation"
					}
				},
				{
					"sampler":188,
					"target":{
						"node":51,
						"path":"scale"
					}
				},
				{
					"sampler":189,
					"target":{
						"node":58,
						"path":"translation"
					}
				},
				{
					"sampler":190,
					"target":{
						"node":58,
						"path":"rotation"
					}
				},
				{
					"sampler":191,
					"target":{
						"node":58,
						"path":"scale"
					}
				},
				{
					"sampler":192,
					"target":{
						"node":57,
						"path":"translation"
					}
				},
				{
					"sampler":193,
					"target":{
						"node":57,
						"path":"rotation"
					}
				},
				{
					"sampler":194,
					"target":{
						"node":57,
						"path":"scale"
					}
				},
				{
					"sampler":195,
					"target":{
						"node":56,
						"path":"translation"
					}
				},
				{
					"sampler":196,
					"target":{
						"node":56,
						"path":"rotation"
					}
				},
				{
					"sampler":197,
					"target":{
						"node":56,
						"path":"scale"
					}
				},
				{
					"sampler":198,
					"target":{
						"node":55,
						"path":"translation"
					}
				},
				{
					"sampler":199,
					"target":{
						"node":55,
						"path":"rotation"
					}
				},
				{
					"sampler":200,
					"target":{
						"node":55,
						"path":"scale"
					}
				}
			],
			"name":"Armature|mixamo.com|Layer0",
			"samplers":[
				{
					"input":0,
					"interpolation":"LINEAR",
					"output":1
				},
				{
					"input":0,
					"interpolation":"LINEAR",
					"output":2
				},
				{
					"input":3,
					"interpolation":"STEP",
					"output":4
				},
				{
					"input":3,
					"interpolation":"STEP",
					"output":5
				},
				{
					"input":0,
					"interpolation":"LINEAR",
					"output":6
				},
				{
					"input":3,
					"interpolation":"STEP",
					"output":7
				},
				{
					"input":3,
					"interpolation":"STEP",
					"output":8
				},
				{
					"input":0,
					"interpolation":"LINEAR",
					"output":9
				},
				{
					"input":3,
					"interpolation":"STEP",
					"output":10
				},
				{
					"input":3,
					"interpolation":"STEP",
					"output":11
				},
				{
					"input":0,
					"interpolation":"LINEAR",
					"output":12
				},
				{
					"input":3,
					"interpolation":"STEP",
					"output":13
				},
				{
					"input":3,
					"interpolation":"STEP",
					"output":14
				},
				{
					"input":0,
					"interpolation":"LINEAR",
					"output":15
				},
				{
					"input":3,
					"interpolation":"STEP",
					"output":16
				},
				{
					"input":3,
					"interpolation":"STEP",
					"output":17
				},
				{
					"input":3,
					"interpolation":"STEP",
					"output":18
				},
				{
					"input":3,
					"interpolation":"STEP",
					"output":19
				},
				{
					"input":3,
					"interpolation":"STEP",
					"output":20
				},
				{
					"input":0,
					"interpolation":"LINEAR",
					"output":21
				},
				{
					"input":3,
					"interpolation":"STEP",
					"output":22
				},
				{
					"input":3,
					"interpolation":"STEP",
					"output":23
				},
				{
					"input":0,
					"interpolation":"LINEAR",
					"output":24
				},
				{
					"input":3,
					"interpolation":"STEP",
					"output":16
				},
				{
					"input":3,
					"interpolation":"STEP",
					"output":25
				},
				{
					"input":0,
					"interpolation":"LINEAR",
					"output":26
				},
				{
					"input":3,
					"interpolation":"STEP",
					"output":27
				},
				{
					"input":3,
					"interpolation":"STEP",
					"output":28
				},
				{
					"input":0,
					"interpolation":"LINEAR",
					"output":29
				},
				{
					"input":3,
					"interpolation":"STEP",
					"output":30
				},
				{
					"input":3,
					"interpolation":"STEP",
					"output":31
				},
				{
					"input":3,
					"interpolation":"STEP",
					"output":32
				},
				{
					"input":3,
					"interpolation":"STEP",
					"output":33
				},
				{
					"input":3,
					"interpolation":"STEP",
					"output":34
				},
				{
					"input":0,
					"interpolation":"LINEAR",
					"output":35
				},
				{
					"input":3,
					"interpolation":"STEP",
					"output":36
				},
				{
					"input":3,
					"interpolation":"STEP",
					"output":37
				},
				{
					"input":0,
					"interpolation":"LINEAR",
					"output":38
				},
				{
					"input":3,
					"interpolation":"STEP",
					"output":39
				},
				{
					"input":0,
					"interpolation":"LINEAR",
					"output":40
				},
				{
					"input":0,
					"interpolation":"LINEAR",
					"output":41
				},
				{
					"input":3,
					"interpolation":"STEP",
					"output":42
				},
				{
					"input":0,
					"interpolation":"LINEAR",
					"output":43
				},
				{
					"input":0,
					"interpolation":"LINEAR",
					"output":44
				},
				{
					"input":3,
					"interpolation":"STEP",
					"output":45
				},
				{
					"input":0,
					"interpolation":"LINEAR",
					"output":46
				},
				{
					"input":0,
					"interpolation":"LINEAR",
					"output":47
				},
				{
					"input":3,
					"interpolation":"STEP",
					"output":48
				},
				{
					"input":3,
					"interpolation":"STEP",
					"output":49
				},
				{
					"input":0,
					"interpolation":"LINEAR",
					"output":50
				},
				{
					"input":3,
					"interpolation":"STEP",
					"output":51
				},
				{
					"input":3,
					"interpolation":"STEP",
					"output":52
				},
				{
					"input":0,
					"interpolation":"LINEAR",
					"output":53
				},
				{
					"input":3,
					"interpolation":"STEP",
					"output":7
				},
				{
					"input":3,
					"interpolation":"STEP",
					"output":54
				},
				{
					"input":3,
					"interpolation":"STEP",
					"output":55
				},
				{
					"input":3,
					"interpolation":"STEP",
					"output":56
				},
				{
					"input":3,
					"interpolation":"STEP",
					"output":57
				},
				{
					"input":3,
					"interpolation":"STEP",
					"output":58
				},
				{
					"input":3,
					"interpolation":"STEP",
					"output":59
				},
				{
					"input":3,
					"interpolation":"STEP",
					"output":60
				},
				{
					"input":3,
					"interpolation":"STEP",
					"output":61
				},
				{
					"input":3,
					"interpolation":"STEP",
					"output":62
				},
				{
					"input":3,
					"interpolation":"STEP",
					"output":63
				},
				{
					"input":3,
					"interpolation":"STEP",
					"output":64
				},
				{
					"input":3,
					"interpolation":"STEP",
					"output":65
				},
				{
					"input":3,
					"interpolation":"STEP",
					"output":66
				},
				{
					"input":3,
					"interpolation":"STEP",
					"output":67
				},
				{
					"input":3,
					"interpolation":"STEP",
					"output":68
				},
				{
					"input":3,
					"interpolation":"STEP",
					"output":69
				},
				{
					"input":3,
					"interpolation":"STEP",
					"output":70
				},
				{
					"input":3,
					"interpolation":"STEP",
					"output":71
				},
				{
					"input":3,
					"interpolation":"STEP",
					"output":72
				},
				{
					"input":3,
					"interpolation":"STEP",
					"output":73
				},
				{
					"input":3,
					"interpolation":"STEP",
					"output":74
				},
				{
					"input":3,
					"interpolation":"STEP",
					"output":75
				},
				{
					"input":3,
					"interpolation":"STEP",
					"output":76
				},
				{
					"input":3,
					"interpolation":"STEP",
					"output":7
				},
				{
					"input":3,
					"interpolation":"STEP",
					"output":77
				},
				{
					"input":3,
					"interpolation":"STEP",
					"output":78
				},
				{
					"input":3,
					"interpolation":"STEP",
					"output":79
				},
				{
					"input":3,
					"interpolation":"STEP",
					"output":80
				},
				{
					"input":3,
					"interpolation":"STEP",
					"output":81
				},
				{
					"input":3,
					"interpolation":"STEP",
					"output":82
				},
				{
					"input":3,
					"interpolation":"STEP",
					"output":83
				},
				{
					"input":3,
					"interpolation":"STEP",
					"output":84
				},
				{
					"input":3,
					"interpolation":"STEP",
					"output":7
				},
				{
					"input":3,
					"interpolation":"STEP",
					"output":85
				},
				{
					"input":3,
					"interpolation":"STEP",
					"output":86
				},
				{
					"input":3,
					"interpolation":"STEP",
					"output":7
				},
				{
					"input":3,
					"interpolation":"STEP",
					"output":87
				},
				{
					"input":3,
					"interpolation":"STEP",
					"output":88
				},
				{
					"input":3,
					"interpolation":"STEP",
					"output":7
				},
				{
					"input":3,
					"interpolation":"STEP",
					"output":89
				},
				{
					"input":3,
					"interpolation":"STEP",
					"output":90
				},
				{
					"input":3,
					"interpolation":"STEP",
					"output":7
				},
				{
					"input":3,
					"interpolation":"STEP",
					"output":91
				},
				{
					"input":3,
					"interpolation":"STEP",
					"output":92
				},
				{
					"input":3,
					"interpolation":"STEP",
					"output":93
				},
				{
					"input":3,
					"interpolation":"STEP",
					"output":94
				},
				{
					"input":3,
					"interpolation":"STEP",
					"output":95
				},
				{
					"input":3,
					"interpolation":"STEP",
					"output":96
				},
				{
					"input":3,
					"interpolation":"STEP",
					"output":97
				},
				{
					"input":3,
					"interpolation":"STEP",
					"output":98
				},
				{
					"input":3,
					"interpolation":"STEP",
					"output":99
				},
				{
					"input":3,
					"interpolation":"STEP",
					"output":100
				},
				{
					"input":3,
					"interpolation":"STEP",
					"output":101
				},
				{
					"input":3,
					"interpolation":"STEP",
					"output":65
				},
				{
					"input":3,
					"interpolation":"STEP",
					"output":102
				},
				{
					"input":3,
					"interpolation":"STEP",
					"output":103
				},
				{
					"input":3,
					"interpolation":"STEP",
					"output":104
				},
				{
					"input":3,
					"interpolation":"STEP",
					"output":105
				},
				{
					"input":3,
					"interpolation":"STEP",
					"output":106
				},
				{
					"input":3,
					"interpolation":"STEP",
					"output":107
				},
				{
					"input":0,
					"interpolation":"LINEAR",
					"output":108
				},
				{
					"input":0,
					"interpolation":"LINEAR",
					"output":109
				},
				{
					"input":3,
					"interpolation":"STEP",
					"output":110
				},
				{
					"input":0,
					"interpolation":"LINEAR",
					"output":111
				},
				{
					"input":0,
					"interpolation":"LINEAR",
					"output":112
				},
				{
					"input":3,
					"interpolation":"STEP",
					"output":113
				},
				{
					"input":0,
					"interpolation":"LINEAR",
					"output":114
				},
				{
					"input":3,
					"interpolation":"STEP",
					"output":115
				},
				{
					"input":3,
					"interpolation":"STEP",
					"output":4
				},
				{
					"input":0,
					"interpolation":"LINEAR",
					"output":116
				},
				{
					"input":3,
					"interpolation":"STEP",
					"output":117
				},
				{
					"input":3,
					"interpolation":"STEP",
					"output":118
				},
				{
					"input":0,
					"interpolation":"LINEAR",
					"output":119
				},
				{
					"input":3,
					"interpolation":"STEP",
					"output":120
				},
				{
					"input":3,
					"interpolation":"STEP",
					"output":121
				},
				{
					"input":0,
					"interpolation":"LINEAR",
					"output":122
				},
				{
					"input":0,
					"interpolation":"LINEAR",
					"output":123
				},
				{
					"input":3,
					"interpolation":"STEP",
					"output":124
				},
				{
					"input":0,
					"interpolation":"LINEAR",
					"output":125
				},
				{
					"input":0,
					"interpolation":"LINEAR",
					"output":126
				},
				{
					"input":3,
					"interpolation":"STEP",
					"output":127
				},
				{
					"input":3,
					"interpolation":"STEP",
					"output":128
				},
				{
					"input":0,
					"interpolation":"LINEAR",
					"output":129
				},
				{
					"input":3,
					"interpolation":"STEP",
					"output":7
				},
				{
					"input":3,
					"interpolation":"STEP",
					"output":130
				},
				{
					"input":0,
					"interpolation":"LINEAR",
					"output":131
				},
				{
					"input":3,
					"interpolation":"STEP",
					"output":132
				},
				{
					"input":3,
					"interpolation":"STEP",
					"output":133
				},
				{
					"input":3,
					"interpolation":"STEP",
					"output":134
				},
				{
					"input":3,
					"interpolation":"STEP",
					"output":59
				},
				{
					"input":3,
					"interpolation":"STEP",
					"output":135
				},
				{
					"input":3,
					"interpolation":"STEP",
					"output":136
				},
				{
					"input":3,
					"interpolation":"STEP",
					"output":104
				},
				{
					"input":3,
					"interpolation":"STEP",
					"output":137
				},
				{
					"input":3,
					"interpolation":"STEP",
					"output":138
				},
				{
					"input":3,
					"interpolation":"STEP",
					"output":139
				},
				{
					"input":3,
					"interpolation":"STEP",
					"output":140
				},
				{
					"input":3,
					"interpolation":"STEP",
					"output":141
				},
				{
					"input":3,
					"interpolation":"STEP",
					"output":59
				},
				{
					"input":3,
					"interpolation":"STEP",
					"output":142
				},
				{
					"input":3,
					"interpolation":"STEP",
					"output":143
				},
				{
					"input":3,
					"interpolation":"STEP",
					"output":104
				},
				{
					"input":3,
					"interpolation":"STEP",
					"output":144
				},
				{
					"input":3,
					"interpolation":"STEP",
					"output":145
				},
				{
					"input":3,
					"interpolation":"STEP",
					"output":146
				},
				{
					"input":3,
					"interpolation":"STEP",
					"output":147
				},
				{
					"input":3,
					"interpolation":"STEP",
					"output":148
				},
				{
					"input":3,
					"interpolation":"STEP",
					"output":149
				},
				{
					"input":3,
					"interpolation":"STEP",
					"output":150
				},
				{
					"input":3,
					"interpolation":"STEP",
					"output":151
				},
				{
					"input":3,
					"interpolation":"STEP",
					"output":7
				},
				{
					"input":3,
					"interpolation":"STEP",
					"output":152
				},
				{
					"input":3,
					"interpolation":"STEP",
					"output":153
				},
				{
					"input":3,
					"interpolation":"STEP",
					"output":104
				},
				{
					"input":3,
					"interpolation":"STEP",
					"output":154
				},
				{
					"input":3,
					"interpolation":"STEP",
					"output":155
				},
				{
					"input":3,
					"interpolation":"STEP",
					"output":156
				},
				{
					"input":3,
					"interpolation":"STEP",
					"output":157
				},
				{
					"input":3,
					"interpolation":"STEP",
					"output":158
				},
				{
					"input":3,
					"interpolation":"STEP",
					"output":159
				},
				{
					"input":3,
					"interpolation":"STEP",
					"output":160
				},
				{
					"input":3,
					"interpolation":"STEP",
					"output":161
				},
				{
					"input":3,
					"interpolation":"STEP",
					"output":156
				},
				{
					"input":3,
					"interpolation":"STEP",
					"output":162
				},
				{
					"input":3,
					"interpolation":"STEP",
					"output":163
				},
				{
					"input":3,
					"interpolation":"STEP",
					"output":132
				},
				{
					"input":3,
					"interpolation":"STEP",
					"output":164
				},
				{
					"input":3,
					"interpolation":"STEP",
					"output":165
				},
				{
					"input":3,
					"interpolation":"STEP",
					"output":7
				},
				{
					"input":3,
					"interpolation":"STEP",
					"output":166
				},
				{
					"input":3,
					"interpolation":"STEP",
					"output":167
				},
				{
					"input":3,
					"interpolation":"STEP",
					"output":7
				},
				{
					"input":3,
					"interpolation":"STEP",
					"output":168
				},
				{
					"input":3,
					"interpolation":"STEP",
					"output":169
				},
				{
					"input":3,
					"interpolation":"STEP",
					"output":132
				},
				{
					"input":3,
					"interpolation":"STEP",
					"output":170
				},
				{
					"input":3,
					"interpolation":"STEP",
					"output":171
				},
				{
					"input":3,
					"interpolation":"STEP",
					"output":172
				},
				{
					"input":3,
					"interpolation":"STEP",
					"output":173
				},
				{
					"input":3,
					"interpolation":"STEP",
					"output":174
				},
				{
					"input":3,
					"interpolation":"STEP",
					"output":132
				},
				{
					"input":3,
					"interpolation":"STEP",
					"output":175
				},
				{
					"input":3,
					"interpolation":"STEP",
					"output":176
				},
				{
					"input":3,
					"interpolation":"STEP",
					"output":177
				},
				{
					"input":3,
					"interpolation":"STEP",
					"output":178
				},
				{
					"input":3,
					"interpolation":"STEP",
					"output":179
				},
				{
					"input":3,
					"interpolation":"STEP",
					"output":180
				}
			]
		}
	],
	"accessors":[
		{
			"bufferView":0,
			"componentType":5126,
			"count":251,
			"max":[
				8.366666666666667
			],
			"min":[
				0.03333333333333333
			],
			"type":"SCALAR"
		},
		{
			"bufferView":1,
			"componentType":5126,
			"count":251,
			"type":"VEC3"
		},
		{
			"bufferView":2,
			"componentType":5126,
			"count":251,
			"type":"VEC4"
		},
		{
			"bufferView":3,
			"componentType":5126,
			"count":2,
			"max":[
				8.366666666666667
			],
			"min":[
				0.03333333333333333
			],
			"type":"SCALAR"
		},
		{
			"bufferView":4,
			"componentType":5126,
			"count":2,
			"type":"VEC3"
		},
		{
			"bufferView":5,
			"componentType":5126,
			"count":2,
			"type":"VEC3"
		},
		{
			"bufferView":6,
			"componentType":5126,
			"count":251,
			"type":"VEC4"
		},
		{
			"bufferView":7,
			"componentType":5126,
			"count":2,
			"type":"VEC3"
		},
		{
			"bufferView":8,
			"componentType":5126,
			"count":2,
			"type":"VEC3"
		},
		{
			"bufferView":9,
			"componentType":5126,
			"count":251,
			"type":"VEC4"
		},
		{
			"bufferView":10,
			"componentType":5126,
			"count":2,
			"type":"VEC3"
		},
		{
			"bufferView":11,
			"componentType":5126,
			"count":2,
			"type":"VEC3"
		},
		{
			"bufferView":12,
			"componentType":5126,
			"count":251,
			"type":"VEC4"
		},
		{
			"bufferView":13,
			"componentType":5126,
			"count":2,
			"type":"VEC3"
		},
		{
			"bufferView":14,
			"componentType":5126,
			"count":2,
			"type":"VEC3"
		},
		{
			"bufferView":15,
			"componentType":5126,
			"count":251,
			"type":"VEC4"
		},
		{
			"bufferView":16,
			"componentType":5126,
			"count":2,
			"type":"VEC3"
		},
		{
			"bufferView":17,
			"componentType":5126,
			"count":2,
			"type":"VEC3"
		},
		{
			"bufferView":18,
			"componentType":5126,
			"count":2,
			"type":"VEC4"
		},
		{
			"bufferView":19,
			"componentType":5126,
			"count":2,
			"type":"VEC3"
		},
		{
			"bufferView":20,
			"componentType":5126,
			"count":2,
			"type":"VEC3"
		},
		{
			"bufferView":21,
			"componentType":5126,
			"count":251,
			"type":"VEC4"
		},
		{
			"bufferView":22,
			"componentType":5126,
			"count":2,
			"type":"VEC3"
		},
		{
			"bufferView":23,
			"componentType":5126,
			"count":2,
			"type":"VEC3"
		},
		{
			"bufferView":24,
			"componentType":5126,
			"count":251,
			"type":"VEC4"
		},
		{
			"bufferView":25,
			"componentType":5126,
			"count":2,
			"type":"VEC3"
		},
		{
			"bufferView":26,
			"componentType":5126,
			"count":251,
			"type":"VEC4"
		},
		{
			"bufferView":27,
			"componentType":5126,
			"count":2,
			"type":"VEC3"
		},
		{
			"bufferView":28,
			"componentType":5126,
			"count":2,
			"type":"VEC3"
		},
		{
			"bufferView":29,
			"componentType":5126,
			"count":251,
			"type":"VEC4"
		},
		{
			"bufferView":30,
			"componentType":5126,
			"count":2,
			"type":"VEC3"
		},
		{
			"bufferView":31,
			"componentType":5126,
			"count":2,
			"type":"VEC3"
		},
		{
			"bufferView":32,
			"componentType":5126,
			"count":2,
			"type":"VEC4"
		},
		{
			"bufferView":33,
			"componentType":5126,
			"count":2,
			"type":"VEC3"
		},
		{
			"bufferView":34,
			"componentType":5126,
			"count":2,
			"type":"VEC3"
		},
		{
			"bufferView":35,
			"componentType":5126,
			"count":251,
			"type":"VEC4"
		},
		{
			"bufferView":36,
			"componentType":5126,
			"count":2,
			"type":"VEC3"
		},
		{
			"bufferView":37,
			"componentType":5126,
			"count":2,
			"type":"VEC3"
		},
		{
			"bufferView":38,
			"componentType":5126,
			"count":251,
			"type":"VEC4"
		},
		{
			"bufferView":39,
			"componentType":5126,
			"count":2,
			"type":"VEC3"
		},
		{
			"bufferView":40,
			"componentType":5126,
			"count":251,
			"type":"VEC3"
		},
		{
			"bufferView":41,
			"componentType":5126,
			"count":251,
			"type":"VEC4"
		},
		{
			"bufferView":42,
			"componentType":5126,
			"count":2,
			"type":"VEC3"
		},
		{
			"bufferView":43,
			"componentType":5126,
			"count":251,
			"type":"VEC3"
		},
		{
			"bufferView":44,
			"componentType":5126,
			"count":251,
			"type":"VEC4"
		},
		{
			"bufferView":45,
			"componentType":5126,
			"count":2,
			"type":"VEC3"
		},
		{
			"bufferView":46,
			"componentType":5126,
			"count":251,
			"type":"VEC3"
		},
		{
			"bufferView":47,
			"componentType":5126,
			"count":251,
			"type":"VEC4"
		},
		{
			"bufferView":48,
			"componentType":5126,
			"count":2,
			"type":"VEC3"
		},
		{
			"bufferView":49,
			"componentType":5126,
			"count":2,
			"type":"VEC3"
		},
		{
			"bufferView":50,
			"componentType":5126,
			"count":251,
			"type":"VEC4"
		},
		{
			"bufferView":51,
			"componentType":5126,
			"count":2,
			"type":"VEC3"
		},
		{
			"bufferView":52,
			"componentType":5126,
			"count":2,
			"type":"VEC3"
		},
		{
			"bufferView":53,
			"componentType":5126,
			"count":251,
			"type":"VEC4"
		},
		{
			"bufferView":54,
			"componentType":5126,
			"count":2,
			"type":"VEC3"
		},
		{
			"bufferView":55,
			"componentType":5126,
			"count":2,
			"type":"VEC4"
		},
		{
			"bufferView":56,
			"componentType":5126,
			"count":2,
			"type":"VEC3"
		},
		{
			"bufferView":57,
			"componentType":5126,
			"count":2,
			"type":"VEC3"
		},
		{
			"bufferView":58,
			"componentType":5126,
			"count":2,
			"type":"VEC4"
		},
		{
			"bufferView":59,
			"componentType":5126,
			"count":2,
			"type":"VEC3"
		},
		{
			"bufferView":60,
			"componentType":5126,
			"count":2,
			"type":"VEC3"
		},
		{
			"bufferView":61,
			"componentType":5126,
			"count":2,
			"type":"VEC4"
		},
		{
			"bufferView":62,
			"componentType":5126,
			"count":2,
			"type":"VEC3"
		},
		{
			"bufferView":63,
			"componentType":5126,
			"count":2,
			"type":"VEC3"
		},
		{
			"bufferView":64,
			"componentType":5126,
			"count":2,
			"type":"VEC4"
		},
		{
			"bufferView":65,
			"componentType":5126,
			"count":2,
			"type":"VEC3"
		},
		{
			"bufferView":66,
			"componentType":5126,
			"count":2,
			"type":"VEC3"
		},
		{
			"bufferView":67,
			"componentType":5126,
			"count":2,
			"type":"VEC4"
		},
		{
			"bufferView":68,
			"componentType":5126,
			"count":2,
			"type":"VEC3"
		},
		{
			"bufferView":69,
			"componentType":5126,
			"count":2,
			"type":"VEC3"
		},
		{
			"bufferView":70,
			"componentType":5126,
			"count":2,
			"type":"VEC4"
		},
		{
			"bufferView":71,
			"componentType":5126,
			"count":2,
			"type":"VEC3"
		},
		{
			"bufferView":72,
			"componentType":5126,
			"count":2,
			"type":"VEC3"
		},
		{
			"bufferView":73,
			"componentType":5126,
			"count":2,
			"type":"VEC4"
		},
		{
			"bufferView":74,
			"componentType":5126,
			"count":2,
			"type":"VEC3"
		},
		{
			"bufferView":75,
			"componentType":5126,
			"count":2,
			"type":"VEC3"
		},
		{
			"bufferView":76,
			"componentType":5126,
			"count":2,
			"type":"VEC4"
		},
		{
			"bufferView":77,
			"componentType":5126,
			"count":2,
			"type":"VEC3"
		},
		{
			"bufferView":78,
			"componentType":5126,
			"count":2,
			"type":"VEC4"
		},
		{
			"bufferView":79,
			"componentType":5126,
			"count":2,
			"type":"VEC3"
		},
		{
			"bufferView":80,
			"componentType":5126,
			"count":2,
			"type":"VEC3"
		},
		{
			"bufferView":81,
			"componentType":5126,
			"count":2,
			"type":"VEC4"
		},
		{
			"bufferView":82,
			"componentType":5126,
			"count":2,
			"type":"VEC3"
		},
		{
			"bufferView":83,
			"componentType":5126,
			"count":2,
			"type":"VEC3"
		},
		{
			"bufferView":84,
			"componentType":5126,
			"count":2,
			"type":"VEC4"
		},
		{
			"bufferView":85,
			"componentType":5126,
			"count":2,
			"type":"VEC3"
		},
		{
			"bufferView":86,
			"componentType":5126,
			"count":2,
			"type":"VEC4"
		},
		{
			"bufferView":87,
			"componentType":5126,
			"count":2,
			"type":"VEC3"
		},
		{
			"bufferView":88,
			"componentType":5126,
			"count":2,
			"type":"VEC4"
		},
		{
			"bufferView":89,
			"componentType":5126,
			"count":2,
			"type":"VEC3"
		},
		{
			"bufferView":90,
			"componentType":5126,
			"count":2,
			"type":"VEC4"
		},
		{
			"bufferView":91,
			"componentType":5126,
			"count":2,
			"type":"VEC3"
		},
		{
			"bufferView":92,
			"componentType":5126,
			"count":2,
			"type":"VEC4"
		},
		{
			"bufferView":93,
			"componentType":5126,
			"count":2,
			"type":"VEC3"
		},
		{
			"bufferView":94,
			"componentType":5126,
			"count":2,
			"type":"VEC3"
		},
		{
			"bufferView":95,
			"componentType":5126,
			"count":2,
			"type":"VEC4"
		},
		{
			"bufferView":96,
			"componentType":5126,
			"count":2,
			"type":"VEC3"
		},
		{
			"bufferView":97,
			"componentType":5126,
			"count":2,
			"type":"VEC3"
		},
		{
			"bufferView":98,
			"componentType":5126,
			"count":2,
			"type":"VEC4"
		},
		{
			"bufferView":99,
			"componentType":5126,
			"count":2,
			"type":"VEC3"
		},
		{
			"bufferView":100,
			"componentType":5126,
			"count":2,
			"type":"VEC3"
		},
		{
			"bufferView":101,
			"componentType":5126,
			"count":2,
			"type":"VEC4"
		},
		{
			"bufferView":102,
			"componentType":5126,
			"count":2,
			"type":"VEC3"
		},
		{
			"bufferView":103,
			"componentType":5126,
			"count":2,
			"type":"VEC4"
		},
		{
			"bufferView":104,
			"componentType":5126,
			"count":2,
			"type":"VEC3"
		},
		{
			"bufferView":105,
			"componentType":5126,
			"count":2,
			"type":"VEC3"
		},
		{
			"bufferView":106,
			"componentType":5126,
			"count":2,
			"type":"VEC4"
		},
		{
			"bufferView":107,
			"componentType":5126,
			"count":2,
			"type":"VEC3"
		},
		{
			"bufferView":108,
			"componentType":5126,
			"count":251,
			"type":"VEC3"
		},
		{
			"bufferView":109,
			"componentType":5126,
			"count":251,
			"type":"VEC4"
		},
		{
			"bufferView":110,
			"componentType":5126,
			"count":2,
			"type":"VEC3"
		},
		{
			"bufferView":111,
			"componentType":5126,
			"count":251,
			"type":"VEC3"
		},
		{
			"bufferView":112,
			"componentType":5126,
			"count":251,
			"type":"VEC4"
		},
		{
			"bufferView":113,
			"componentType":5126,
			"count":2,
			"type":"VEC3"
		},
		{
			"bufferView":114,
			"componentType":5126,
			"count":251,
			"type":"VEC3"
		},
		{
			"bufferView":115,
			"componentType":5126,
			"count":2,
			"type":"VEC4"
		},
		{
			"bufferView":116,
			"componentType":5126,
			"count":251,
			"type":"VEC3"
		},
		{
			"bufferView":117,
			"componentType":5126,
			"count":2,
			"type":"VEC4"
		},
		{
			"bufferView":118,
			"componentType":5126,
			"count":2,
			"type":"VEC3"
		},
		{
			"bufferView":119,
			"componentType":5126,
			"count":251,
			"type":"VEC3"
		},
		{
			"bufferView":120,
			"componentType":5126,
			"count":2,
			"type":"VEC4"
		},
		{
			"bufferView":121,
			"componentType":5126,
			"count":2,
			"type":"VEC3"
		},
		{
			"bufferView":122,
			"componentType":5126,
			"count":251,
			"type":"VEC3"
		},
		{
			"bufferView":123,
			"componentType":5126,
			"count":251,
			"type":"VEC4"
		},
		{
			"bufferView":124,
			"componentType":5126,
			"count":2,
			"type":"VEC3"
		},
		{
			"bufferView":125,
			"componentType":5126,
			"count":251,
			"type":"VEC3"
		},
		{
			"bufferView":126,
			"componentType":5126,
			"count":251,
			"type":"VEC4"
		},
		{
			"bufferView":127,
			"componentType":5126,
			"count":2,
			"type":"VEC3"
		},
		{
			"bufferView":128,
			"componentType":5126,
			"count":2,
			"type":"VEC3"
		},
		{
			"bufferView":129,
			"componentType":5126,
			"count":251,
			"type":"VEC4"
		},
		{
			"bufferView":130,
			"componentType":5126,
			"count":2,
			"type":"VEC3"
		},
		{
			"bufferView":131,
			"componentType":5126,
			"count":251,
			"type":"VEC4"
		},
		{
			"bufferView":132,
			"componentType":5126,
			"count":2,
			"type":"VEC3"
		},
		{
			"bufferView":133,
			"componentType":5126,
			"count":2,
			"type":"VEC3"
		},
		{
			"bufferView":134,
			"componentType":5126,
			"count":2,
			"type":"VEC4"
		},
		{
			"bufferView":135,
			"componentType":5126,
			"count":2,
			"type":"VEC3"
		},
		{
			"bufferView":136,
			"componentType":5126,
			"count":2,
			"type":"VEC4"
		},
		{
			"bufferView":137,
			"componentType":5126,
			"count":2,
			"type":"VEC3"
		},
		{
			"bufferView":138,
			"componentType":5126,
			"count":2,
			"type":"VEC4"
		},
		{
			"bufferView":139,
			"componentType":5126,
			"count":2,
			"type":"VEC3"
		},
		{
			"bufferView":140,
			"componentType":5126,
			"count":2,
			"type":"VEC3"
		},
		{
			"bufferView":141,
			"componentType":5126,
			"count":2,
			"type":"VEC4"
		},
		{
			"bufferView":142,
			"componentType":5126,
			"count":2,
			"type":"VEC3"
		},
		{
			"bufferView":143,
			"componentType":5126,
			"count":2,
			"type":"VEC4"
		},
		{
			"bufferView":144,
			"componentType":5126,
			"count":2,
			"type":"VEC3"
		},
		{
			"bufferView":145,
			"componentType":5126,
			"count":2,
			"type":"VEC4"
		},
		{
			"bufferView":146,
			"componentType":5126,
			"count":2,
			"type":"VEC3"
		},
		{
			"bufferView":147,
			"componentType":5126,
			"count":2,
			"type":"VEC3"
		},
		{
			"bufferView":148,
			"componentType":5126,
			"count":2,
			"type":"VEC4"
		},
		{
			"bufferView":149,
			"componentType":5126,
			"count":2,
			"type":"VEC3"
		},
		{
			"bufferView":150,
			"componentType":5126,
			"count":2,
			"type":"VEC3"
		},
		{
			"bufferView":151,
			"componentType":5126,
			"count":2,
			"type":"VEC4"
		},
		{
			"bufferView":152,
			"componentType":5126,
			"count":2,
			"type":"VEC3"
		},
		{
			"bufferView":153,
			"componentType":5126,
			"count":2,
			"type":"VEC4"
		},
		{
			"bufferView":154,
			"componentType":5126,
			"count":2,
			"type":"VEC3"
		},
		{
			"bufferView":155,
			"componentType":5126,
			"count":2,
			"type":"VEC4"
		},
		{
			"bufferView":156,
			"componentType":5126,
			"count":2,
			"type":"VEC3"
		},
		{
			"bufferView":157,
			"componentType":5126,
			"count":2,
			"type":"VEC3"
		},
		{
			"bufferView":158,
			"componentType":5126,
			"count":2,
			"type":"VEC4"
		},
		{
			"bufferView":159,
			"componentType":5126,
			"count":2,
			"type":"VEC3"
		},
		{
			"bufferView":160,
			"componentType":5126,
			"count":2,
			"type":"VEC3"
		},
		{
			"bufferView":161,
			"componentType":5126,
			"count":2,
			"type":"VEC4"
		},
		{
			"bufferView":162,
			"componentType":5126,
			"count":2,
			"type":"VEC3"
		},
		{
			"bufferView":163,
			"componentType":5126,
			"count":2,
			"type":"VEC4"
		},
		{
			"bufferView":164,
			"componentType":5126,
			"count":2,
			"type":"VEC3"
		},
		{
			"bufferView":165,
			"componentType":5126,
			"count":2,
			"type":"VEC4"
		},
		{
			"bufferView":166,
			"componentType":5126,
			"count":2,
			"type":"VEC3"
		},
		{
			"bufferView":167,
			"componentType":5126,
			"count":2,
			"type":"VEC4"
		},
		{
			"bufferView":168,
			"componentType":5126,
			"count":2,
			"type":"VEC3"
		},
		{
			"bufferView":169,
			"componentType":5126,
			"count":2,
			"type":"VEC4"
		},
		{
			"bufferView":170,
			"componentType":5126,
			"count":2,
			"type":"VEC3"
		},
		{
			"bufferView":171,
			"componentType":5126,
			"count":2,
			"type":"VEC4"
		},
		{
			"bufferView":172,
			"componentType":5126,
			"count":2,
			"type":"VEC3"
		},
		{
			"bufferView":173,
			"componentType":5126,
			"count":2,
			"type":"VEC3"
		},
		{
			"bufferView":174,
			"componentType":5126,
			"count":2,
			"type":"VEC4"
		},
		{
			"bufferView":175,
			"componentType":5126,
			"count":2,
			"type":"VEC3"
		},
		{
			"bufferView":176,
			"componentType":5126,
			"count":2,
			"type":"VEC4"
		},
		{
			"bufferView":177,
			"componentType":5126,
			"count":2,
			"type":"VEC3"
		},
		{
			"bufferView":178,
			"componentType":5126,
			"count":2,
			"type":"VEC3"
		},
		{
			"bufferView":179,
			"componentType":5126,
			"count":2,
			"type":"VEC4"
		},
		{
			"bufferView":180,
			"componentType":5126,
			"count":2,
			"type":"VEC3"
		}
	],
	"bufferViews":[
		{
			"buffer":0,
			"byteLength":1004,
			"byteOffset":0
		},
		{
			"buffer":0,
			"byteLength":3012,
			"byteOffset":1004
		},
		{
			"buffer":0,
			"byteLength":4016,
			"byteOffset":4016
		},
		{
			"buffer":0,
			"byteLength":8,
			"byteOffset":8032
		},
		{
			"buffer":0,
			"byteLength":24,
			"byteOffset":8040
		},
		{
			"buffer":0,
			"byteLength":24,
			"byteOffset":8064
		},
		{
			"buffer":0,
			"byteLength":4016,
			"byteOffset":8088
		},
		{
			"buffer":0,
			"byteLength":24,
			"byteOffset":12104
		},
		{
			"buffer":0,
			"byteLength":24,
			"byteOffset":12128
		},
		{
			"buffer":0,
			"byteLength":4016,
			"byteOffset":12152
		},
		{
			"buffer":0,
			"byteLength":24,
			"byteOffset":16168
		},
		{
			"buffer":0,
			"byteLength":24,
			"byteOffset":16192
		},
		{
			"buffer":0,
			"byteLength":4016,
			"byteOffset":16216
		},
		{
			"buffer":0,
			"byteLength":24,
			"byteOffset":20232
		},
		{
			"buffer":0,
			"byteLength":24,
			"byteOffset":20256
		},
		{
			"buffer":0,
			"byteLength":4016,
			"byteOffset":20280
		},
		{
			"buffer":0,
			"byteLength":24,
			"byteOffset":24296
		},
		{
			"buffer":0,
			"byteLength":24,
			"byteOffset":24320
		},
		{
			"buffer":0,
			"byteLength":32,
			"byteOffset":24344
		},
		{
			"buffer":0,
			"byteLength":24,
			"byteOffset":24376
		},
		{
			"buffer":0,
			"byteLength":24,
			"byteOffset":24400
		},
		{
			"buffer":0,
			"byteLength":4016,
			"byteOffset":24424
		},
		{
			"buffer":0,
			"byteLength":24,
			"byteOffset":28440
		},
		{
			"buffer":0,
			"byteLength":24,
			"byteOffset":28464
		},
		{
			"buffer":0,
			"byteLength":4016,
			"byteOffset":28488
		},
		{
			"buffer":0,
			"byteLength":24,
			"byteOffset":32504
		},
		{
			"buffer":0,
			"byteLength":4016,
			"byteOffset":32528
		},
		{
			"buffer":0,
			"byteLength":24,
			"byteOffset":36544
		},
		{
			"buffer":0,
			"byteLength":24,
			"byteOffset":36568
		},
		{
			"buffer":0,
			"byteLength":4016,
			"byteOffset":36592
		},
		{
			"buffer":0,
			"byteLength":24,
			"byteOffset":40608
		},
		{
			"buffer":0,
			"byteLength":24,
			"byteOffset":40632
		},
		{
			"buffer":0,
			"byteLength":32,
			"byteOffset":40656
		},
		{
			"buffer":0,
			"byteLength":24,
			"byteOffset":40688
		},
		{
			"buffer":0,
			"byteLength":24,
			"byteOffset":40712
		},
		{
			"buffer":0,
			"byteLength":4016,
			"byteOffset":40736
		},
		{
			"buffer":0,
			"byteLength":24,
			"byteOffset":44752
		},
		{
			"buffer":0,
			"byteLength":24,
			"byteOffset":44776
		},
		{
			"buffer":0,
			"byteLength":4016,
			"byteOffset":44800
		},
		{
			"buffer":0,
			"byteLength":24,
			"byteOffset":48816
		},
		{
			"buffer":0,
			"byteLength":3012,
			"byteOffset":48840
		},
		{
			"buffer":0,
			"byteLength":4016,
			"byteOffset":51852
		},
		{
			"buffer":0,
			"byteLength":24,
			"byteOffset":55868
		},
		{
			"buffer":0,
			"byteLength":3012,
			"byteOffset":55892
		},
		{
			"buffer":0,
			"byteLength":4016,
			"byteOffset":58904
		},
		{
			"buffer":0,
			"byteLength":24,
			"byteOffset":62920
		},
		{
			"buffer":0,
			"byteLength":3012,
			"byteOffset":62944
		},
		{
			"buffer":0,
			"byteLength":4016,
			"byteOffset":65956
		},
		{
			"buffer":0,
			"byteLength":24,
			"byteOffset":69972
		},
		{
			"buffer":0,
			"byteLength":24,
			"byteOffset":69996
		},
		{
			"buffer":0,
			"byteLength":4016,
			"byteOffset":70020
		},
		{
			"buffer":0,
			"byteLength":24,
			"byteOffset":74036
		},
		{
			"buffer":0,
			"byteLength":24,
			"byteOffset":74060
		},
		{
			"buffer":0,
			"byteLength":4016,
			"byteOffset":74084
		},
		{
			"buffer":0,
			"byteLength":24,
			"byteOffset":78100
		},
		{
			"buffer":0,
			"byteLength":32,
			"byteOffset":78124
		},
		{
			"buffer":0,
			"byteLength":24,
			"byteOffset":78156
		},
		{
			"buffer":0,
			"byteLength":24,
			"byteOffset":78180
		},
		{
			"buffer":0,
			"byteLength":32,
			"byteOffset":78204
		},
		{
			"buffer":0,
			"byteLength":24,
			"byteOffset":78236
		},
		{
			"buffer":0,
			"byteLength":24,
			"byteOffset":78260
		},
		{
			"buffer":0,
			"byteLength":32,
			"byteOffset":78284
		},
		{
			"buffer":0,
			"byteLength":24,
			"byteOffset":78316
		},
		{
			"buffer":0,
			"byteLength":24,
			"byteOffset":78340
		},
		{
			"buffer":0,
			"byteLength":32,
			"byteOffset":78364
		},
		{
			"buffer":0,
			"byteLength":24,
			"byteOffset":78396
		},
		{
			"buffer":0,
			"byteLength":24,
			"byteOffset":78420
		},
		{
			"buffer":0,
			"byteLength":32,
			"byteOffset":78444
		},
		{
			"buffer":0,
			"byteLength":24,
			"byteOffset":78476
		},
		{
			"buffer":0,
			"byteLength":24,
			"byteOffset":78500
		},
		{
			"buffer":0,
			"byteLength":32,
			"byteOffset":78524
		},
		{
			"buffer":0,
			"byteLength":24,
			"byteOffset":78556
		},
		{
			"buffer":0,
			"byteLength":24,
			"byteOffset":78580
		},
		{
			"buffer":0,
			"byteLength":32,
			"byteOffset":78604
		},
		{
			"buffer":0,
			"byteLength":24,
			"byteOffset":78636
		},
		{
			"buffer":0,
			"byteLength":24,
			"byteOffset":78660
		},
		{
			"buffer":0,
			"byteLength":32,
			"byteOffset":78684
		},
		{
			"buffer":0,
			"byteLength":24,
			"byteOffset":78716
		},
		{
			"buffer":0,
			"byteLength":32,
			"byteOffset":78740
		},
		{
			"buffer":0,
			"byteLength":24,
			"byteOffset":78772
		},
		{
			"buffer":0,
			"byteLength":24,
			"byteOffset":78796
		},
		{
			"buffer":0,
			"byteLength":32,
			"byteOffset":78820
		},
		{
			"buffer":0,
			"byteLength":24,
			"byteOffset":78852
		},
		{
			"buffer":0,
			"byteLength":24,
			"byteOffset":78876
		},
		{
			"buffer":0,
			"byteLength":32,
			"byteOffset":78900
		},
		{
			"buffer":0,
			"byteLength":24,
			"byteOffset":78932
		},
		{
			"buffer":0,
			"byteLength":32,
			"byteOffset":78956
		},
		{
			"buffer":0,
			"byteLength":24,
			"byteOffset":78988
		},
		{
			"buffer":0,
			"byteLength":32,
			"byteOffset":79012
		},
		{
			"buffer":0,
			"byteLength":24,
			"byteOffset":79044
		},
		{
			"buffer":0,
			"byteLength":32,
			"byteOffset":79068
		},
		{
			"buffer":0,
			"byteLength":24,
			"byteOffset":79100
		},
		{
			"buffer":0,
			"byteLength":32,
			"byteOffset":79124
		},
		{
			"buffer":0,
			"byteLength":24,
			"byteOffset":79156
		},
		{
			"buffer":0,
			"byteLength":24,
			"byteOffset":79180
		},
		{
			"buffer":0,
			"byteLength":32,
			"byteOffset":79204
		},
		{
			"buffer":0,
			"byteLength":24,
			"byteOffset":79236
		},
		{
			"buffer":0,
			"byteLength":24,
			"byteOffset":79260
		},
		{
			"buffer":0,
			"byteLength":32,
			"byteOffset":79284
		},
		{
			"buffer":0,
			"byteLength":24,
			"byteOffset":79316
		},
		{
			"buffer":0,
			"byteLength":24,
			"byteOffset":79340
		},
		{
			"buffer":0,
			"byteLength":32,
			"byteOffset":79364
		},
		{
			"buffer":0,
			"byteLength":24,
			"byteOffset":79396
		},
		{
			"buffer":0,
			"byteLength":32,
			"byteOffset":79420
		},
		{
			"buffer":0,
			"byteLength":24,
			"byteOffset":79452
		},
		{
			"buffer":0,
			"byteLength":24,
			"byteOffset":79476
		},
		{
			"buffer":0,
			"byteLength":32,
			"byteOffset":79500
		},
		{
			"buffer":0,
			"byteLength":24,
			"byteOffset":79532
		},
		{
			"buffer":0,
			"byteLength":3012,
			"byteOffset":79556
		},
		{
			"buffer":0,
			"byteLength":4016,
			"byteOffset":82568
		},
		{
			"buffer":0,
			"byteLength":24,
			"byteOffset":86584
		},
		{
			"buffer":0,
			"byteLength":3012,
			"byteOffset":86608
		},
		{
			"buffer":0,
			"byteLength":4016,
			"byteOffset":89620
		},
		{
			"buffer":0,
			"byteLength":24,
			"byteOffset":93636
		},
		{
			"buffer":0,
			"byteLength":3012,
			"byteOffset":93660
		},
		{
			"buffer":0,
			"byteLength":32,
			"byteOffset":96672
		},
		{
			"buffer":0,
			"byteLength":3012,
			"byteOffset":96704
		},
		{
			"buffer":0,
			"byteLength":32,
			"byteOffset":99716
		},
		{
			"buffer":0,
			"byteLength":24,
			"byteOffset":99748
		},
		{
			"buffer":0,
			"byteLength":3012,
			"byteOffset":99772
		},
		{
			"buffer":0,
			"byteLength":32,
			"byteOffset":102784
		},
		{
			"buffer":0,
			"byteLength":24,
			"byteOffset":102816
		},
		{
			"buffer":0,
			"byteLength":3012,
			"byteOffset":102840
		},
		{
			"buffer":0,
			"byteLength":4016,
			"byteOffset":105852
		},
		{
			"buffer":0,
			"byteLength":24,
			"byteOffset":109868
		},
		{
			"buffer":0,
			"byteLength":3012,
			"byteOffset":109892
		},
		{
			"buffer":0,
			"byteLength":4016,
			"byteOffset":112904
		},
		{
			"buffer":0,
			"byteLength":24,
			"byteOffset":116920
		},
		{
			"buffer":0,
			"byteLength":24,
			"byteOffset":116944
		},
		{
			"buffer":0,
			"byteLength":4016,
			"byteOffset":116968
		},
		{
			"buffer":0,
			"byteLength":24,
			"byteOffset":120984
		},
		{
			"buffer":0,
			"byteLength":4016,
			"byteOffset":121008
		},
		{
			"buffer":0,
			"byteLength":24,
			"byteOffset":125024
		},
		{
			"buffer":0,
			"byteLength":24,
			"byteOffset":125048
		},
		{
			"buffer":0,
			"byteLength":32,
			"byteOffset":125072
		},
		{
			"buffer":0,
			"byteLength":24,
			"byteOffset":125104
		},
		{
			"buffer":0,
			"byteLength":32,
			"byteOffset":125128
		},
		{
			"buffer":0,
			"byteLength":24,
			"byteOffset":125160
		},
		{
			"buffer":0,
			"byteLength":32,
			"byteOffset":125184
		},
		{
			"buffer":0,
			"byteLength":24,
			"byteOffset":125216
		},
		{
			"buffer":0,
			"byteLength":24,
			"byteOffset":125240
		},
		{
			"buffer":0,
			"byteLength":32,
			"byteOffset":125264
		},
		{
			"buffer":0,
			"byteLength":24,
			"byteOffset":125296
		},
		{
			"buffer":0,
			"byteLength":32,
			"byteOffset":125320
		},
		{
			"buffer":0,
			"byteLength":24,
			"byteOffset":125352
		},
		{
			"buffer":0,
			"byteLength":32,
			"byteOffset":125376
		},
		{
			"buffer":0,
			"byteLength":24,
			"byteOffset":125408
		},
		{
			"buffer":0,
			"byteLength":24,
			"byteOffset":125432
		},
		{
			"buffer":0,
			"byteLength":32,
			"byteOffset":125456
		},
		{
			"buffer":0,
			"byteLength":24,
			"byteOffset":125488
		},
		{
			"buffer":0,
			"byteLength":24,
			"byteOffset":125512
		},
		{
			"buffer":0,
			"byteLength":32,
			"byteOffset":125536
		},
		{
			"buffer":0,
			"byteLength":24,
			"byteOffset":125568
		},
		{
			"buffer":0,
			"byteLength":32,
			"byteOffset":125592
		},
		{
			"buffer":0,
			"byteLength":24,
			"byteOffset":125624
		},
		{
			"buffer":0,
			"byteLength":32,
			"byteOffset":125648
		},
		{
			"buffer":0,
			"byteLength":24,
			"byteOffset":125680
		},
		{
			"buffer":0,
			"byteLength":24,
			"byteOffset":125704
		},
		{
			"buffer":0,
			"byteLength":32,
			"byteOffset":125728
		},
		{
			"buffer":0,
			"byteLength":24,
			"byteOffset":125760
		},
		{
			"buffer":0,
			"byteLength":24,
			"byteOffset":125784
		},
		{
			"buffer":0,
			"byteLength":32,
			"byteOffset":125808
		},
		{
			"buffer":0,
			"byteLength":24,
			"byteOffset":125840
		},
		{
			"buffer":0,
			"byteLength":32,
			"byteOffset":125864
		},
		{
			"buffer":0,
			"byteLength":24,
			"byteOffset":125896
		},
		{
			"buffer":0,
			"byteLength":32,
			"byteOffset":125920
		},
		{
			"buffer":0,
			"byteLength":24,
			"byteOffset":125952
		},
		{
			"buffer":0,
			"byteLength":32,
			"byteOffset":125976
		},
		{
			"buffer":0,
			"byteLength":24,
			"byteOffset":126008
		},
		{
			"buffer":0,
			"byteLength":32,
			"byteOffset":126032
		},
		{
			"buffer":0,
			"byteLength":24,
			"byteOffset":126064
		},
		{
			"buffer":0,
			"byteLength":32,
			"byteOffset":126088
		},
		{
			"buffer":0,
			"byteLength":24,
			"byteOffset":126120
		},
		{
			"buffer":0,
			"byteLength":24,
			"byteOffset":126144
		},
		{
			"buffer":0,
			"byteLength":32,
			"byteOffset":126168
		},
		{
			"buffer":0,
			"byteLength":24,
			"byteOffset":126200
		},
		{
			"buffer":0,
			"byteLength":32,
			"byteOffset":126224
		},
		{
			"buffer":0,
			"byteLength":24,
			"byteOffset":126256
		},
		{
			"buffer":0,
			"byteLength":24,
			"byteOffset":126280
		},
		{
			"buffer":0,
			"byteLength":32,
			"byteOffset":126304
		},
		{
			"buffer":0,
			"byteLength":24,
			"byteOffset":126336
		}
	],
	"buffers":[
		{
			"byteLength":126360,
			"uri":"idle_anim.bin"
		}
	]
}
